<svg xmlns="http://www.w3.org/2000/svg" xmlns:xlink="http://www.w3.org/1999/xlink" 
    xmlns:serif="http://www.serif.com/" 
    viewBox="410 1410 328 328" version="1.1" xml:space="preserve" 
    style="fill-rule:evenodd;clip-rule:evenodd;stroke-linejoin:round;stroke-miterlimit:2;">
    <g id="Capa3">
        <g transform="matrix(0.537882,0,0,0.548784,-380.036,1065.92)">
            <circle cx="1774.81" cy="926.396" r="283.793" style="fill:rgb(194,122,32);"/>
        </g>
        <g transform="matrix(0.548584,0,0,0.548584,-393.384,1013.21)">
            <path d="M2038.24,1074.06L1956.48,1150.09C1957.65,1152.7 1958.69,1155.44 1959.57,1158.29C1976.47,1212.89 1875.75,1266.8 1855.83,1273.84C1835.9,1280.87 1763.42,1317.07 1655.8,1258.44C1588.2,1221.62 1562.33,1167.63 1552.44,1132.57C1541.38,1101.45 1520.93,1100.26 1507.46,1075.56C1493.98,1050.82 1504.85,1013.68 1504.85,1013.68C1504.85,1013.68 1520.14,962.002 1516.83,992.933C1513.51,1023.86 1529.01,1031.37 1551.98,1051.13C1553.65,1052.56 1555.16,1054.1 1556.51,1055.71C1559.37,1045.06 1563.05,1034.45 1567.43,1024.36C1587.56,978.058 1569.09,959.668 1569.09,959.668C1569.09,959.668 1585.88,962.658 1599.76,1007.32C1613.64,1051.97 1592.54,1079.35 1581.11,1117.47C1574.89,1138.19 1577.02,1150.05 1580.25,1156.56C1618.22,1202.96 1664.95,1208.64 1712.82,1199L1712.6,1198.88C1712.6,1198.88 1737.5,1194.67 1736.39,1178.29C1735.27,1161.9 1728.16,1160.48 1679.66,1146C1631.17,1131.53 1631.9,1118.81 1631.9,1118.81L1677.01,1111.67C1722.12,1104.53 1741.71,1139.31 1766.58,1162.65C1773.62,1169.26 1779.94,1172.72 1785.37,1174.29C1789.12,1159.34 1782.22,1155.18 1742.11,1126.45C1701.04,1097.04 1705.91,1085.26 1705.91,1085.26L1750.9,1093.14C1794.53,1100.8 1802.49,1137.93 1817.36,1167.65C1838.72,1160.42 1866.32,1147.91 1897.87,1123.17C1912.58,1111.63 1932.42,1117.68 1946.31,1133.91L2040.16,1061.85C2039.61,1065.95 2038.97,1070.03 2038.24,1074.06Z"/>
        </g>
        <g transform="matrix(-0.0714758,0.119681,-0.120547,-0.0709624,873.761,1533.55)">
            <path d="M1295.87,2551.32C1289.21,2560.43 1281.86,2569.33 1273.83,2577.9C1119.95,2742.37 739.493,2506.06 676.629,2452.17C613.766,2398.29 348.84,2223.17 339.86,1742.71C334.219,1440.94 468.523,1247.22 569.196,1144.87C654.085,1046.29 618.332,974.507 676.629,880.334C735.003,786.038 883.182,750.116 883.182,750.116C883.182,750.116 1089.73,700.723 977.477,750.116C865.22,799.509 869.711,866.863 846.865,983.61C845.202,992.109 842.879,1000.23 840.003,1007.97C881.986,996.81 925.433,988.503 968.497,983.61C1166.07,961.159 1193.01,862.373 1193.01,862.373C1193.01,862.373 1215.46,925.236 1089.73,1059.94C964.006,1194.65 829.298,1176.69 676.629,1212.61C593.654,1232.14 557.234,1262.61 541.273,1286.37C456.46,1506.3 528.038,1676.14 654.178,1819.79L654.178,1818.8C654.178,1818.8 717.042,1895.13 770.925,1859.21C824.808,1823.29 815.828,1796.35 770.925,1603.27C726.022,1410.18 770.925,1387.73 770.925,1387.73L883.182,1526.93C995.438,1666.13 914.613,1800.84 883.182,1931.06C874.278,1967.94 874.742,1996.18 879.98,2017.71C938.407,2001.12 939.178,1969.56 959.362,1776.98C980.025,1579.82 1029.8,1573.28 1029.8,1573.28L1090.4,1741.52C1149.18,1904.71 1037.65,2004.54 964.967,2113.32C1031.26,2171.68 1127.8,2240.89 1273.83,2299.51C1341.95,2326.85 1359.87,2406.09 1331.42,2485.07L2055.14,2784.21L1295.87,2551.32Z" style="fill:rgb(255,252,252);"/>
        </g>
        <g transform="matrix(0.548584,0,0,0.548584,-393.384,1013.21)">
            <path d="M1488.87,983.804L1580.38,901.19C1579.24,898.557 1578.24,895.803 1577.4,892.944C1561.32,838.098 1662.81,785.664 1682.84,778.92C1702.88,772.175 1775.87,737.031 1882.62,797.222C1949.67,835.027 1974.74,889.386 1984.11,924.588C1994.71,955.86 2015.14,957.346 2028.24,982.246C2041.36,1007.18 2029.94,1044.15 2029.94,1044.15C2029.94,1044.15 2013.88,1095.6 2017.66,1064.72C2021.43,1033.84 2006.05,1026.11 1983.37,1006.02C1981.72,1004.56 1980.24,1003.01 1978.91,1001.38C1975.89,1011.98 1972.06,1022.53 1967.52,1032.56C1946.71,1078.57 1964.91,1097.22 1964.91,1097.22C1964.91,1097.22 1948.17,1093.99 1934.95,1049.14C1921.73,1004.28 1943.23,977.217 1955.23,939.263C1961.75,918.636 1959.8,906.748 1956.65,900.193C1919.38,853.241 1872.73,846.887 1824.73,855.823L1824.95,855.952C1824.95,855.952 1799.98,859.792 1800.86,876.194C1801.73,892.596 1808.82,894.122 1857.1,909.302C1905.38,924.482 1904.46,937.182 1904.46,937.182L1859.25,943.667C1814.03,950.151 1794.96,915.093 1770.44,891.391C1763.5,884.677 1757.23,881.126 1751.82,879.484C1747.85,894.376 1754.69,898.627 1794.38,927.942C1835.01,957.953 1829.96,969.658 1829.96,969.658L1785.09,961.116C1741.57,952.831 1734.17,915.585 1719.74,885.657C1698.27,892.569 1670.49,904.678 1638.58,928.955C1623.7,940.279 1603.95,933.938 1590.3,917.515L1487.68,993.948C1488.02,990.555 1488.42,987.18 1488.87,983.804Z" style="fill:white;"/>
        </g>
    </g>
</svg>