<svg xmlns="http://www.w3.org/2000/svg" viewBox="0 0 31.01 47.04"><defs>
<style>.cls-1{fill:#ffffff;stroke:#348fce;stroke-miterlimit:10;}</style>
</defs><g id="Capa_2" data-name="Capa 2"><g id="Capa_1-2" data-name="Capa 1"><path class="cls-1" d="M16.88,23.56,28.46,12.22a6.84,6.84,0,0,0,.1-9.67h0a6.84,6.84,0,0,0-9.66-.1L2.78,18.24a6.72,6.72,0,0,0-1.44,2.07,6.82,6.82,0,0,0,1.11,8.06L18.24,44.49A6.83,6.83,0,1,0,28,34.92Zm9.58,19.16h0a4.76,4.76,0,0,1-6.73,0L4.55,27.54a4.71,4.71,0,0,1-1.22-2.15,4.75,4.75,0,0,1,1-5.25L20.26,4.21A4.76,4.76,0,0,1,27,11L14.21,23.73,26.46,36A4.77,4.77,0,0,1,26.46,42.72Z"/></g></g></svg>