<?xml version="1.0" encoding="UTF-8" standalone="no"?>
<!-- Created with Inkscape (http://www.inkscape.org/) -->

<svg
   width="20mm"
   height="20mm"
   viewBox="0 0 20 20"
   version="1.1"
   id="svg5"
   inkscape:version="1.1 (c68e22c387, 2021-05-23)"
   sodipodi:docname="bulb.svg"
   xmlns:inkscape="http://www.inkscape.org/namespaces/inkscape"
   xmlns:sodipodi="http://sodipodi.sourceforge.net/DTD/sodipodi-0.dtd"
   xmlns="http://www.w3.org/2000/svg"
   xmlns:svg="http://www.w3.org/2000/svg">
  <sodipodi:namedview
     id="namedview7"
     pagecolor="#ffffff"
     bordercolor="#666666"
     borderopacity="1.0"
     inkscape:pageshadow="2"
     inkscape:pageopacity="0.0"
     inkscape:pagecheckerboard="true"
     inkscape:document-units="mm"
     showgrid="false"
     inkscape:zoom="3.9535622"
     inkscape:cx="59.819471"
     inkscape:cy="59.566535"
     inkscape:window-width="1842"
     inkscape:window-height="983"
     inkscape:window-x="-8"
     inkscape:window-y="-8"
     inkscape:window-maximized="1"
     inkscape:current-layer="layer1" />
  <defs
     id="defs2" />
  <g
     inkscape:label="Capa 1"
     inkscape:groupmode="layer"
     id="layer1">
    <path
       id="path2373"
       style="fill:#ffffff;stroke-width:0.999999"
       d="M 37.560547 0.25390625 A 37.813997 37.561063 0 0 0 -0.25390625 37.814453 A 37.813997 37.561063 0 0 0 37.560547 75.375 A 37.813997 37.561063 0 0 0 75.375 37.814453 A 37.813997 37.561063 0 0 0 37.560547 0.25390625 z M 37.560547 4.0644531 A 33.635851 33.749119 0 0 1 71.197266 37.814453 A 33.635851 33.749119 0 0 1 37.560547 71.5625 A 33.635851 33.749119 0 0 1 3.9257812 37.814453 A 33.635851 33.749119 0 0 1 37.560547 4.0644531 z M 37.748047 9.5898438 C 36.904401 9.5816649 36.219209 10.257037 36.210938 11.103516 L 36.130859 19.318359 C 36.122696 20.164835 36.795046 20.854984 37.638672 20.863281 C 38.482327 20.871483 39.167508 20.196088 39.175781 19.349609 L 39.255859 11.132812 C 39.26493 10.286334 38.591676 9.5981432 37.748047 9.5898438 z M 55.808594 15.207031 C 55.432833 15.210653 55.046516 15.357376 54.740234 15.648438 L 49.371094 20.751953 C 48.758572 21.334068 48.701081 22.262817 49.240234 22.833984 C 49.779399 23.405151 50.70583 23.396599 51.318359 22.814453 L 56.6875 17.710938 C 57.300044 17.128834 57.359489 16.200073 56.820312 15.628906 C 56.550719 15.343318 56.184369 15.20346 55.808594 15.207031 z M 18.822266 15.365234 C 18.457311 15.372793 18.093768 15.510327 17.806641 15.783203 C 17.194098 16.365319 17.167877 17.330711 17.748047 17.945312 L 23.380859 23.910156 C 23.961017 24.524758 24.920663 24.55087 25.533203 23.96875 C 26.145742 23.386636 26.171964 22.423196 25.591797 21.808594 L 19.960938 15.841797 C 19.652728 15.51529 19.235884 15.356616 18.822266 15.365234 z M 37.841797 23.945312 A 12.572062 12.356959 0 0 0 25.269531 36.302734 A 12.572062 12.356959 0 0 0 26.140625 40.820312 C 27.949916 46.320727 32.336463 49.998519 32.197266 55.369141 L 42.974609 55.369141 C 42.804946 50.321706 47.287098 46.490242 49.392578 41.162109 A 12.572062 12.356959 0 0 0 50.341797 37.550781 C 50.412134 37.005256 50.452055 36.44407 50.455078 35.863281 L 50.40625 35.863281 A 12.572062 12.356959 0 0 0 37.841797 23.945312 z M 13.546875 34.226562 C 12.703198 34.226562 12.023438 34.907388 12.023438 35.753906 C 12.023438 36.600423 12.703198 37.283203 13.546875 37.283203 L 21.736328 37.283203 C 22.580005 37.283203 23.259766 36.600423 23.259766 35.753906 C 23.259766 34.907388 22.580005 34.226562 21.736328 34.226562 L 13.546875 34.226562 z M 55.195312 35.210938 C 54.351654 35.210938 53.671875 35.844168 53.671875 36.630859 C 53.671875 37.417557 54.351654 38.050781 55.195312 38.050781 L 62.589844 38.050781 C 63.433529 38.050781 64.113281 37.417557 64.113281 36.630859 C 64.113281 35.844168 63.433529 35.210937 62.589844 35.210938 L 55.195312 35.210938 z M 31.734375 56.4375 L 31.734375 63.921875 L 43.519531 63.921875 L 43.519531 56.4375 L 31.734375 56.4375 z M 35.376953 65.021484 L 35.376953 66.599609 L 39.480469 66.599609 L 39.480469 65.021484 L 35.376953 65.021484 z "
       transform="scale(0.26458333)" />
  </g>
</svg>
