<svg xmlns="http://www.w3.org/2000/svg" 
viewBox="0 0 67.79 67.79"><defs><style>.cls-1{fill:#ffffff;}</style></defs><g id="Capa_2" data-name="Capa 2"><g id="Capa_1-2" data-name="Capa 1"><path class="cls-1" d="M16.58,47.2l2.31,2.35L32.6,45.32Q27.93,40.17,23.28,35,19.94,41.12,16.58,47.2Z"/><path class="cls-1" d="M33.9,0A33.9,33.9,0,1,0,67.79,33.9,33.9,33.9,0,0,0,33.9,0ZM53.84,29.87,34.14,47l-3.3,1.1q-7.77,2.56-15.32,4.68A2.06,2.06,0,0,1,13,52.66a2.1,2.1,0,0,1,0-2.94c2.48-4.41,4.93-9,7.31-13.72.53-1,1.05-2.08,1.56-3.11l19.7-17.14A4.55,4.55,0,0,1,48,16.2l6.32,7.27A4.54,4.54,0,0,1,53.84,29.87Z"/></g></g></svg>