<svg xmlns="http://www.w3.org/2000/svg" viewBox="0 0 67.79 67.79"><defs><style>.cls-1{fill:#348fce;}</style></defs><g id="Capa_2" data-name="Capa 2"><g id="Capa_1-2" data-name="Capa 1"><path class="cls-1" d="M33.9,0A33.9,33.9,0,1,0,67.79,33.9,33.9,33.9,0,0,0,33.9,0Zm0,62.67A28.77,28.77,0,1,1,62.67,33.9,28.77,28.77,0,0,1,33.9,62.67Z"/><path class="cls-1" d="M54.29,23.47,48,16.2a4.55,4.55,0,0,0-6.41-.45L21.86,32.89c-.51,1-1,2.07-1.56,3.11-2.38,4.73-4.83,9.31-7.31,13.72a2.1,2.1,0,0,0,0,2.94,2.06,2.06,0,0,0,2.53.13q7.55-2.11,15.32-4.68l3.3-1.1,19.7-17.14A4.54,4.54,0,0,0,54.29,23.47ZM18.89,49.55,16.58,47.2q3.34-6.09,6.7-12.16,4.66,5.13,9.32,10.28Z"/></g></g></svg>