<?xml version="1.0" encoding="UTF-8" standalone="no"?>
<!-- Created with Inkscape (http://www.inkscape.org/) -->

<svg
   width="50mm"
   height="50mm"
   viewBox="0 0 50 50"
   version="1.1"
   id="svg5"
   inkscape:version="1.1 (c68e22c387, 2021-05-23)"
   sodipodi:docname="generic_asset.svg"
   xmlns:inkscape="http://www.inkscape.org/namespaces/inkscape"
   xmlns:sodipodi="http://sodipodi.sourceforge.net/DTD/sodipodi-0.dtd"
   xmlns="http://www.w3.org/2000/svg"
   xmlns:svg="http://www.w3.org/2000/svg">
  <defs
     id="defs2" />
  <g
     inkscape:label="Capa 1"
     inkscape:groupmode="layer"
     id="layer1">
    <circle
       style="fill:#000000;stroke:none;stroke-width:0.264583"
       id="path2962"
       cx="25.769234"
       cy="25.486061"
       r="24.49493" />
    <circle
       style="fill:#ffffff;stroke:none;stroke-width:0.264583"
       id="circle3066"
       cx="25.769234"
       cy="25.486061"
       r="21.175526" />
    <path
       id="rect1044"
       style="fill:#000000;stroke-width:0.264583"
       d="m 13.662684,10.352837 c -1.582793,0.04227 -2.921462,1.154658 -2.907594,3.271878 v 24.597594 c -0.02293,2.319236 3.008047,4.516354 5.611327,1.644295 l 6.290599,-9.100436 c 0.872282,-1.143485 0.05612,-1.857424 -1.160533,-0.854735 l -5.896236,4.561916 V 16.89075 l 17.237532,20.772599 1.640955,1.99187 c 2.57424,2.901425 6.267819,0.643611 6.371647,-1.43291 V 13.624715 c 0.02293,-2.319233 -3.008047,-4.5163538 -5.611328,-1.644296 l -6.290598,9.100442 c -0.872286,1.14348 -0.05612,1.857422 1.160532,0.854735 l 5.896236,-4.561918 V 34.402333 L 17.277128,12.226896 c -1.004571,-1.292465 -2.383379,-1.906943 -3.614444,-1.874059 z" />
  </g>
</svg>
