<?xml version="1.0" encoding="UTF-8" standalone="no"?>
<!-- Created with Inkscape (http://www.inkscape.org/) -->

<svg
   width="210mm"
   height="297mm"
   viewBox="0 0 210 297"
   version="1.1"
   id="svg5"
   inkscape:version="1.1 (c68e22c387, 2021-05-23)"
   sodipodi:docname="generic_asset.svg"
   xmlns:inkscape="http://www.inkscape.org/namespaces/inkscape"
   xmlns:sodipodi="http://sodipodi.sourceforge.net/DTD/sodipodi-0.dtd"
   xmlns="http://www.w3.org/2000/svg"
   xmlns:svg="http://www.w3.org/2000/svg">
  <defs
     id="defs2" />
  <g
     inkscape:label="Capa 1"
     inkscape:groupmode="layer"
     id="layer1">
    <circle
       style="fill:#000000;stroke:none;stroke-width:0.264583"
       id="path2962"
       cx="88.351662"
       cy="114.1209"
       r="15.150044" />
    <circle
       style="fill:#ffffff;stroke:none;stroke-width:0.264583"
       id="circle3066"
       cx="88.351662"
       cy="114.1209"
       r="13.097001" />
    <path
       id="rect1044"
       style="fill:#000000;stroke-width:0.999999"
       d="M 305.62695 395.94727 C 301.92697 396.0461 298.79766 398.64643 298.83008 403.5957 L 298.83008 461.0957 C 298.77652 466.51721 305.86177 471.65325 311.94727 464.93945 L 326.65234 443.66602 C 328.69141 440.99298 326.78354 439.32406 323.93945 441.66797 L 310.15625 452.33203 L 310.15625 411.23047 L 350.45117 459.78906 L 354.28711 464.44531 C 360.30472 471.22776 368.93893 465.94983 369.18164 461.0957 L 369.18164 403.5957 C 369.2352 398.1742 362.14995 393.03815 356.06445 399.75195 L 341.35938 421.02539 C 339.3203 423.69842 341.22818 425.36735 344.07227 423.02344 L 357.85547 412.35938 L 357.85547 452.16602 L 314.07617 400.32812 C 311.72786 397.30682 308.50472 395.8704 305.62695 395.94727 z "
       transform="scale(0.26458333)" />
  </g>
</svg>
