<svg xmlns="http://www.w3.org/2000/svg" viewBox="0 0 66.37 66.37"><defs><style>.cls-1{fill:#fff;}</style></defs><g id="Capa_2" data-name="Capa 2"><g id="Capa_1-2" data-name="Capa 1"><path class="cls-1" d="M60.09,13.76,49.35,24l6.43,6.77a9.51,9.51,0,0,1-.33,13.44L43.08,56a9.52,9.52,0,0,1-13.16-.05l9.8-9.32,2.65-2.53,5-4.75a4.19,4.19,0,0,0,.14-5.93L33.69,18.84a4.19,4.19,0,0,0-5.93-.15l-5,4.75L20.11,26l-9.8,9.31A9.5,9.5,0,0,1,11,22.2L23.34,10.44a9.52,9.52,0,0,1,13.45.33l6.44,6.77L54,7.32A33.18,33.18,0,0,0,6.31,52.65l6.18-5.87L10,44.14a2.52,2.52,0,0,1,.09-3.58L28.7,22.84a2.53,2.53,0,0,1,3.57.09l10.84,11.4A2.51,2.51,0,0,1,43,37.9L24.39,55.63a2.53,2.53,0,0,1-3.57-.09L19,53.66l-6.11,5.8a33.18,33.18,0,0,0,47.17-45.7Z"/></g></g></svg>