<svg xmlns="http://www.w3.org/2000/svg" viewBox="0 0 65.51 65.51"><defs><style>.cls-1{fill:#fff;}</style></defs><g id="Capa_2" data-name="Capa 2"><g id="Capa_1-2" data-name="Capa 1"><path class="cls-1" d="M32.76,0A32.76,32.76,0,1,0,65.51,32.76,32.76,32.76,0,0,0,32.76,0Zm.45,60.68A27.19,27.19,0,0,1,16.56,55l5-4.77,1.47,1.54a2.08,2.08,0,0,0,2.94.08L41.3,37.3a2.08,2.08,0,0,0,.07-2.94L32.46,25a2.07,2.07,0,0,0-2.93-.07L14.22,39.48a2.08,2.08,0,0,0-.08,2.94l2.07,2.16-5.08,4.83A27.26,27.26,0,0,1,50.29,12.17l-8.83,8.4L36.17,15a7.81,7.81,0,0,0-11-.28L15,24.39a7.81,7.81,0,0,0-.54,10.75l8-7.65,2.18-2.07,4.1-3.91a3.46,3.46,0,0,1,4.88.12L45,33.58a3.44,3.44,0,0,1-.12,4.87l-4.1,3.91-2.18,2.07-8,7.66a7.82,7.82,0,0,0,10.81,0L51.5,42.46a7.82,7.82,0,0,0,.28-11l-5.29-5.55,8.83-8.4A27.27,27.27,0,0,1,33.21,60.68Z"/></g></g></svg>