<svg xmlns="http://www.w3.org/2000/svg" viewBox="0 0 67.79 67.79"><defs><style>.cls-1{fill:#fff;}</style></defs><g id="Capa_2" data-name="Capa 2"><g id="Capa_1-2" data-name="Capa 1"><path class="cls-1" d="M33.9,0A33.9,33.9,0,1,0,67.79,33.9,33.9,33.9,0,0,0,33.9,0Zm0,62.32A28.42,28.42,0,1,1,62.32,33.9,28.42,28.42,0,0,1,33.9,62.32Z"/><path class="cls-1" d="M46.84,27.93h-.22a12.73,12.73,0,1,0-25.45,0H21A5.05,5.05,0,0,0,15.9,33V47.53A5.05,5.05,0,0,0,21,52.59H46.84a5.06,5.06,0,0,0,5.06-5.06V33A5.06,5.06,0,0,0,46.84,27.93Zm-20.16,0a7.22,7.22,0,1,1,14.43,0Z"/></g></g></svg>