<?xml version="1.0" encoding="UTF-8" standalone="no"?>
<svg
   viewBox="0 0 67.79 67.79"
   version="1.1"
   id="svg978"
   sodipodi:docname="meta_icon.svg"
   inkscape:version="1.1 (c68e22c387, 2021-05-23)"
   xmlns:inkscape="http://www.inkscape.org/namespaces/inkscape"
   xmlns:sodipodi="http://sodipodi.sourceforge.net/DTD/sodipodi-0.dtd"
   xmlns="http://www.w3.org/2000/svg"
   xmlns:svg="http://www.w3.org/2000/svg">
  <defs
     id="defs982" />
  <ellipse
     style="fill:#000000;fill-opacity:1"
     id="path12303"
     cx="34.277275"
     cy="33.937473"
     rx="31.898678"
     ry="31.983627" />
  <path
     id="path15162"
     style="fill:#797981;fill-opacity:1;stroke-width:0.385777"
     d="m 31.005718,57.549027 c 0.857465,-0.546241 0.363903,-1.784961 -0.711209,-1.784961 -0.625267,0 -0.99915,0.249283 -1.090715,0.727222 -0.119894,0.625831 0.479119,1.388251 1.090715,1.388251 0.105812,0 0.425858,-0.148731 0.711209,-0.330512 z m 8.138555,-2.558533 c 7.553997,-1.742163 7.310674,-1.658115 7.310674,-2.525188 0,-0.548014 -0.502169,-0.882428 -1.993697,-1.327684 -2.254647,-0.673061 -3.008343,-0.740745 -3.008343,-0.27015 0,0.178753 0.952312,0.554658 2.116248,0.835344 1.163936,0.280686 2.116248,0.620996 2.116248,0.756244 0,0.205046 -2.688574,0.871659 -11.927943,2.957455 -0.793978,0.179245 2.569471,-2.31912 4.998836,-3.713122 0.315674,-0.18114 0.461626,-0.442258 0.324335,-0.580264 -0.269567,-0.270982 -1.254769,0.237537 -4.553626,2.350373 -1.163937,0.745471 -2.339709,1.489658 -2.612828,1.653752 -0.701371,0.421384 -0.143143,1.674341 0.638338,1.432762 0.345282,-0.106733 3.311573,-0.813019 6.591758,-1.569522 z m -10.444965,0.423635 c -0.414942,-0.329453 -11.447562,-6.032026 -11.670003,-6.032026 -0.146275,0 -0.203533,0.188256 -0.127237,0.418343 0.195361,0.589148 11.63116,6.456822 11.79724,6.053126 0.07495,-0.182185 0.07495,-0.379936 0,-0.439443 z m 1.146298,-0.533962 c -1.635582,-3.872992 -3.014049,-6.028684 -3.014049,-4.713474 0,0.754082 2.32054,5.017183 2.731011,5.017183 0.226211,0 0.353583,-0.136667 0.283038,-0.303709 z m 19.110362,-2.403791 c 0,-0.708873 -0.231533,-1.000014 -0.867458,-1.09079 -0.52032,-0.07427 -0.960234,0.119207 -1.099291,0.483482 -0.383106,1.003581 0.153863,1.833051 1.099291,1.698097 0.635925,-0.09077 0.867458,-0.381915 0.867458,-1.090789 z m -7.722935,-2.0763 c 0.321846,-0.528137 0.256381,-0.792953 -0.298492,-1.207467 -0.939918,-0.702152 -1.790268,-0.33223 -1.790268,0.778812 0,1.409756 1.325152,1.681705 2.08876,0.428655 z m 10.330756,-2.511773 c 1.436098,-2.206477 2.136619,-3.641997 1.978889,-4.055181 -0.134289,-0.351781 -0.379332,-0.6396 -0.544541,-0.6396 -0.597645,0 -11.160458,5.899025 -11.160458,6.23279 0,0.486642 0.478253,0.424606 1.357281,-0.176053 1.360086,-0.92938 9.801118,-5.304292 9.801118,-5.079836 0,0.120115 -0.871379,1.516478 -1.936402,3.103026 -2.09153,3.115735 -2.563665,4.045978 -2.048682,4.036502 0.181362,-0.0035 1.33012,-1.543078 2.552795,-3.421648 z M 38.7595,50.197594 c 0,-0.442928 -0.788613,-0.623614 -6.096113,-1.396737 -3.865304,-0.563044 -5.181837,-0.570374 -4.640139,-0.02584 0.142046,0.142786 8.883801,1.615813 10.255287,1.728066 0.264531,0.02166 0.480965,-0.115823 0.480965,-0.305491 z M 16.250318,48.990006 c 0,-0.68555 -0.234511,-0.9953 -0.816764,-1.078809 -0.977964,-0.140267 -1.514345,0.937992 -0.860539,1.729902 0.689881,0.835608 1.677303,0.452314 1.677303,-0.651093 z M 27.21633,48.801913 c 0.382152,-0.462874 0.382152,-0.697483 0,-1.160356 -0.26345,-0.319098 -0.696319,-0.580179 -0.961931,-0.580179 -0.736835,0 -1.389278,0.985556 -1.119788,1.691509 0.301112,0.788792 1.448653,0.815817 2.081719,0.04903 z m -2.693407,-0.473391 c 0,-0.343203 -0.224533,-0.489723 -0.55508,-0.362217 -0.30529,0.117765 -1.955113,0.248038 -3.666272,0.289493 -1.711156,0.04146 -3.207513,0.232041 -3.32523,0.423512 -0.122354,0.199005 1.448152,0.321875 3.666273,0.28684 3.153875,-0.04981 3.880309,-0.169189 3.880309,-0.637628 z m 13.063491,-5.337034 c -1.10687,-2.654397 -2.161474,-4.826179 -2.343563,-4.826179 -0.478569,0 -0.49453,-0.05217 1.444084,4.719825 2.182891,5.373295 2.535281,6.068511 2.749122,5.423627 0.08957,-0.270101 -0.742776,-2.662871 -1.849643,-5.317273 z m 7.488505,0.414817 c 3.014422,-4.746433 4.200594,-7.144333 2.777063,-5.613969 -0.567327,0.609907 -6.783847,10.3666 -6.783847,10.647104 0,0.886161 1.223779,-0.651094 4.006784,-5.033135 z m -28.242606,0.849651 c 0.348708,-1.649351 0.562014,-3.07119 0.47402,-3.159643 -0.088,-0.08846 0.201132,-0.355109 0.642505,-0.59256 0.963693,-0.518451 1.056554,-1.770893 0.157029,-2.117883 -0.977903,-0.377217 -1.955578,0.767077 -1.408186,1.648178 0.237774,0.382729 0.296444,0.945591 0.130373,1.250799 -0.166076,0.305209 -0.51309,1.599247 -0.771153,2.87564 -0.25806,1.276392 -0.562195,2.476351 -0.675853,2.666573 -0.113662,0.190225 -1.202668,-2.333551 -2.420018,-5.608391 -1.21735,-3.274837 -2.151782,-6.018965 -2.076516,-6.098059 0.07527,-0.07909 1.257055,0.752224 2.626186,1.847381 1.369136,1.095152 2.593454,1.821838 2.72071,1.614858 0.213414,-0.347114 -4.552326,-4.285396 -5.185788,-4.285396 -1.406462,0 -0.85957,2.175012 3.04595,12.11387 0.316841,0.806302 0.647183,1.058292 1.267621,0.966965 0.712421,-0.104869 0.934839,-0.576288 1.47312,-3.122332 z m 5.354,-0.510525 c -1.752739,-1.771111 -3.347354,-3.120451 -3.543592,-2.998537 -0.196234,0.121916 1.077266,1.670755 2.83,3.441863 1.752739,1.77111 3.347354,3.12045 3.543592,2.998535 0.196234,-0.121914 -1.077266,-1.670755 -2.83,-3.441861 z m 8.302429,-0.78533 c 3.059336,-4.2697 3.587633,-5.181577 3.001936,-5.181577 -0.192013,0 -1.682294,1.909498 -3.311732,4.243331 -2.63843,3.779008 -3.337719,5.039523 -2.795741,5.039523 0.09178,0 1.489273,-1.845574 3.105537,-4.101277 z M 55.64901,43.43594 c 0.634637,-0.768693 0.103793,-1.78956 -0.93056,-1.78956 -1.024699,0 -1.385938,0.669244 -0.887297,1.643838 0.41517,0.811446 1.215277,0.875583 1.817857,0.145722 z m -1.883387,-2.037509 c 0,-0.568118 -2.8934,-4.006692 -3.37145,-4.006692 -0.430348,0 -0.433299,0.119775 -0.01712,0.695293 2.002516,2.769252 3.388575,4.123745 3.388575,3.311399 z m 1.711152,-6.635988 c 0.196823,-3.314989 0.155663,-4.719633 -0.138306,-4.719633 -0.230191,0 -0.426936,0.652702 -0.437213,1.450447 -0.01027,0.797745 -0.161798,3.190982 -0.336718,5.318302 -0.312678,3.802706 -0.13344,5.547612 0.373952,3.640477 0.141931,-0.533482 0.384161,-3.093798 0.538285,-5.689593 z m -28.74141,3.543849 c 3.438902,-0.568667 6.25255,-1.181134 6.25255,-1.361036 0,-0.179899 -0.272954,-0.32709 -0.606563,-0.32709 -1.376515,0 -12.696421,2.058153 -13.033617,2.369735 -0.586916,0.542332 0.709374,0.42273 7.38763,-0.681609 z m -8.618208,-2.558393 c 0.634131,-5.747724 0.704371,-7.25223 0.338568,-7.25223 -0.211894,0 -0.486079,0.913781 -0.609294,2.030624 -0.634132,5.747723 -0.704372,7.252231 -0.338569,7.252231 0.211894,0 0.486079,-0.913782 0.609295,-2.030625 z m 17.371778,0.864968 c 0,-0.762033 -0.199685,-0.966248 -0.96193,-0.983738 -0.529062,-0.01215 -1.3948,-0.301952 -1.923862,-0.644029 -3.13254,-2.025415 -12.026052,-7.263003 -12.332701,-7.263003 -0.200631,0 -0.35975,0.130541 -0.353594,0.29009 0.01374,0.356032 12.461911,7.832409 13.040963,7.832409 0.228181,0 0.414876,0.333602 0.414876,0.74134 0,0.785136 0.585297,1.189953 1.53909,1.064511 0.338026,-0.04447 0.577158,-0.474358 0.577158,-1.03758 z m 14.205107,0.544096 c 0.334748,-0.129125 0.608629,-0.58014 0.608629,-1.002255 0,-0.422114 0.952311,-1.920792 2.116248,-3.330393 2.039267,-2.469682 2.443397,-3.169926 1.827669,-3.166846 -0.411364,0.0019 -4.155888,4.733525 -4.04011,5.104954 0.0529,0.169729 -0.342109,0.308601 -0.877812,0.308601 -1.133501,0 -1.630142,0.916555 -0.94579,1.745459 0.545157,0.660313 0.50743,0.650516 1.311166,0.34048 z m -5.491286,-0.538797 c 2.014491,0 3.406508,-0.158051 3.406508,-0.386785 0,-0.228733 -1.392017,-0.386785 -3.406508,-0.386785 -4.459585,0 -8.136662,0.39939 -8.136662,0.88377 0,0.242858 0.880075,0.294321 2.365077,0.138294 1.300791,-0.13667 3.898005,-0.248494 5.771585,-0.248494 z m -8.71701,-6.672051 c 0.168634,-2.822916 0.132126,-4.544731 -0.09636,-4.544731 -0.360089,0 -1.217585,9.183644 -0.888396,9.514558 0.475139,0.477627 0.738843,-0.853222 0.984759,-4.969827 z m 12.828933,4.806851 c -0.309703,-0.768025 -11.151372,-10.13533 -11.488302,-9.926005 -0.206169,0.128084 2.153498,2.485399 5.243704,5.238473 5.011361,4.464632 6.651052,5.695472 6.244598,4.687532 z M 10.639571,33.969923 c 0.440064,-0.826569 -0.122361,-1.606398 -1.158557,-1.606398 -0.835979,0 -1.262272,1.100382 -0.693283,1.78956 0.611308,0.740432 1.401745,0.662251 1.85184,-0.183162 z m 38.286477,-3.733719 c -0.285747,-2.127321 -0.525776,-3.94618 -0.533391,-4.04191 -0.0076,-0.09573 -0.163617,-0.0087 -0.346664,0.193393 -0.251099,0.277225 0.148253,5.080429 0.688192,8.277212 0.01616,0.09573 0.182848,0.0087 0.370401,-0.193393 0.198908,-0.214329 0.124512,-1.979197 -0.178538,-4.235302 z m -34.306468,0.02654 c 2.297845,-1.690523 3.086797,-2.54064 2.357838,-2.54064 -0.129156,0 -1.384476,0.83664 -2.789599,1.859205 -1.405123,1.02256 -2.757282,1.98148 -3.004799,2.13093 -0.247516,0.149446 0.937425,-2.701536 2.633209,-6.335522 1.69578,-3.633982 2.98047,-6.710552 2.854857,-6.836819 -0.349974,-0.351805 -0.368989,-0.316808 -3.623982,6.669058 -2.725777,5.850064 -2.987361,6.605378 -2.429607,7.015352 0.343779,0.252694 0.801535,0.343879 1.01723,0.202637 0.2157,-0.141243 1.558882,-1.115142 2.984853,-2.164217 z m 41.798975,-1.137857 c 0.632328,-0.765892 0.105235,-1.78956 -0.921456,-1.78956 -0.483778,0 -0.987684,0.283143 -1.119788,0.629204 -0.269491,0.705953 0.382953,1.69151 1.119788,1.69151 0.265612,0 0.680265,-0.239018 0.921456,-0.531154 z M 19.67874,27.479691 c 0.278713,-0.730108 -0.391383,-1.691511 -1.178978,-1.691511 -0.655121,0 -1.068412,0.942048 -0.763596,1.740536 0.295887,0.775104 1.640931,0.741159 1.942574,-0.04903 z M 54.436177,25.98707 c -0.56807,-1.069691 -4.955588,-8.47638 -5.13939,-8.675942 -0.08164,-0.08864 -0.259748,-0.04925 -0.3958,0.08751 -0.136051,0.136763 0.989408,2.327837 2.501021,4.869054 1.511613,2.54122 2.748387,4.72353 2.748387,4.849584 0,0.126053 -1.029924,-0.293436 -2.288719,-0.932195 -1.375418,-0.697944 -2.383565,-1.007118 -2.526403,-0.774783 -0.130731,0.212631 0.841885,0.899834 2.161369,1.527115 2.217725,1.054304 2.435126,1.090936 2.876163,0.484622 0.350916,-0.482417 0.367677,-0.861935 0.06337,-1.434958 z M 27.408239,25.754082 c 3.597883,-0.656956 6.613752,-1.266143 6.70193,-1.353749 0.625882,-0.621855 -1.140573,-0.471331 -6.773713,0.577214 -3.557879,0.662259 -6.598731,1.202602 -6.757449,1.200766 -0.158719,-0.0019 -0.288579,0.170711 -0.288579,0.383443 0,0.514363 -0.32354,0.551073 7.117811,-0.807674 z m -4.556717,-2.700677 c 1.448334,-1.504127 2.692376,-3.027096 2.764543,-3.384374 0.141316,-0.699637 -4.117479,3.301335 -5.381268,5.055493 -1.416886,1.966658 -0.03848,1.086357 2.616725,-1.671119 z m 26.159568,2.149678 c 0.264262,-0.692258 -0.498368,-1.735612 -1.268629,-1.735612 -0.655121,0 -1.068412,0.942048 -0.763596,1.740535 0.287929,0.754259 1.743762,0.750728 2.032225,-0.0049 z m -30.402275,-1.25213 c -0.115594,-0.797745 -0.320208,-2.364227 -0.454701,-3.481071 -0.134493,-1.116843 -0.421384,-2.030624 -0.637533,-2.030624 -0.371775,0 -0.231214,2.386649 0.335994,5.705088 0.303036,1.77292 1.01478,1.590907 0.75624,-0.193393 z m 27.846132,0.709875 c 0,-0.19458 -1.341893,-0.461434 -2.981985,-0.593004 -1.640092,-0.131573 -3.717863,-0.331139 -4.617268,-0.443488 -0.984141,-0.122928 -1.635283,-0.0478 -1.635283,0.188693 0,0.47244 1.629338,0.777083 5.002041,0.935247 1.375561,0.06451 2.890602,0.150824 3.366757,0.191812 0.476156,0.04099 0.865738,-0.08468 0.865738,-0.27926 z m -9.747003,-0.64317 c 0.308753,-0.808807 -0.718123,-1.805268 -1.535469,-1.489983 -0.355286,0.137054 -0.64547,0.665101 -0.64547,1.174572 0,0.73249 0.203194,0.925581 0.974004,0.925581 0.535707,0 1.078825,-0.274575 1.206935,-0.61017 z m -2.565712,-1.283722 c 0,-0.341972 -5.431316,-3.907892 -5.952178,-3.907892 -0.728324,0 0.24572,0.903356 2.681614,2.487016 2.771256,1.801686 3.270564,2.018607 3.270564,1.420876 z m 8.225764,-2.732915 c 2.678154,-1.693815 5.098453,-2.991295 5.378444,-2.883289 0.683998,0.26385 1.546154,-0.837012 1.254296,-1.601568 -0.35132,-0.920309 -1.89627,-0.53969 -2.145244,0.528512 -0.114485,0.491202 -0.31544,0.839309 -0.446563,0.773572 -0.319858,-0.160362 -9.547156,5.603061 -9.561793,5.972348 -0.02428,0.612236 0.803255,0.194109 5.52086,-2.789575 z m 6.010813,0.372165 c 0,-1.547142 -0.164901,-2.707499 -0.384772,-2.707499 -0.219871,0 -0.384773,1.160357 -0.384773,2.707499 0,1.547143 0.164902,2.7075 0.384773,2.7075 0.219871,0 0.384772,-1.160357 0.384772,-2.7075 z m -12.70511,1.257054 c -0.01127,-0.429159 -0.715677,-5.508436 -0.965521,-6.962141 -0.118825,-0.69138 -0.395103,-1.257054 -0.613954,-1.257054 -0.228435,0 -0.308537,0.453022 -0.188077,1.063661 0.115409,0.585013 0.408806,2.499602 0.651997,4.254642 0.243188,1.755039 0.595389,3.190981 0.782669,3.190981 0.187281,0 0.33708,-0.13054 0.332886,-0.290089 z M 27.85818,18.602659 c 0.308753,-0.808807 -0.718123,-1.805268 -1.535468,-1.489983 -0.643259,0.248135 -0.876381,1.352318 -0.388955,1.842295 0.479511,0.48202 1.690563,0.260307 1.924423,-0.352312 z m -2.565712,-0.524121 c 0,-0.460943 -0.804751,-0.689727 -3.57674,-1.016829 -1.226519,-0.144731 -2.169696,-0.323805 -2.095943,-0.397941 0.07375,-0.07414 2.722168,-0.945852 5.885374,-1.937145 3.163205,-0.991297 6.011002,-1.901299 6.328439,-2.022236 0.317437,-0.120932 -0.461727,0.755424 -1.731476,1.947455 -1.269748,1.192034 -2.17449,2.304086 -2.010535,2.471231 0.267344,0.272541 4.519978,-3.583619 4.505665,-4.085601 -0.03397,-1.191544 -0.860609,-1.090059 -7.133283,0.875737 -5.52702,1.732111 -6.520245,2.15882 -6.520245,2.801232 0,0.638757 0.423269,0.826627 2.693407,1.195497 3.581984,0.582027 3.655337,0.585408 3.655337,0.1686 z M 18.17418,16.886816 c 0,-0.68555 -0.234511,-0.995299 -0.816764,-1.07881 -0.977965,-0.140268 -1.514345,0.937994 -0.86054,1.729902 0.689882,0.835608 1.677304,0.452315 1.677304,-0.651092 z m 28.280767,-1.50417 c 0,-0.192012 -1.25532,-0.725312 -2.789599,-1.185111 -6.815804,-2.042584 -8.213143,-2.518392 -8.783868,-2.990982 -1.374142,-1.137866 -2.949584,0.148355 -1.709098,1.395333 0.495161,0.49775 0.73096,0.516869 1.376493,0.111618 0.428436,-0.268963 0.964178,-0.373964 1.19054,-0.233332 0.503547,0.312839 9.563751,3.155981 10.234567,3.211663 0.264531,0.02197 0.480965,-0.117177 0.480965,-0.309189 z" />
  <g
     class="fix_sen"
     fill="#A4CD82"
     id="g976"
     style="fill:#ffffff;fill-opacity:1" />
  <g
     aria-label="M"
     transform="scale(1.0226454,0.97785606)"
     id="text2213"
     style="font-size:55.7943px;line-height:1.25;font-family:Ebrima;-inkscape-font-specification:Ebrima;fill:#ffffff;stroke-width:1.39485">
    <path
       id="path12241"
       d="M 53.540424,54.643494 H 48.990791 V 28.435429 q 0,-3.105738 0.381407,-7.600884 h -0.108974 q -0.653839,2.642601 -1.171462,3.78682 L 34.74254,54.643494 H 32.508588 L 19.186609,24.839312 Q 18.6145,23.531633 18.015147,20.834545 h -0.108973 q 0.217946,2.342925 0.217946,7.65537 V 54.643494 H 13.710704 V 15.576586 h 6.048015 l 11.987057,27.243311 q 1.389408,3.132981 1.798058,4.685849 h 0.16346 q 1.171462,-3.21471 1.879788,-4.794822 L 47.819329,15.576586 h 5.721095 z M 56.58853,10.154869 a 33.14932,34.667679 0 1 0 0,49.02562 33.14932,34.667679 0 0 0 0,-49.02562 z m -23.781459,55.11036 a 29.267232,30.607777 0 1 1 29.267232,-30.59755 29.267232,30.607777 0 0 1 -29.267232,30.59755 z" />
  </g>
</svg>
