<svg xmlns="http://www.w3.org/2000/svg" viewBox="0 0 67.79 67.79"><defs><style>.cls-1{fill:#fff;}</style></defs><g id="Capa_2" data-name="Capa 2"><g id="Capa_1-2" data-name="Capa 1"><path class="cls-1" d="M0,33.9A33.9,33.9,0,1,0,33.9,0,33.89,33.89,0,0,0,0,33.9ZM40.34,14.27v24.4l2.82-3.26a5.75,5.75,0,0,1,8.11-.59h0a5.75,5.75,0,0,1,.59,8.11L39.44,57.29a5.73,5.73,0,0,1-4.62,2h-.23a5.71,5.71,0,0,1-3.11-.92,5.69,5.69,0,0,1-1.84-1.24L16.22,43.7a5.74,5.74,0,0,1,0-8.13h0a5.76,5.76,0,0,1,8.13,0l4.49,4.49V14.27a5.75,5.75,0,1,1,11.5,0Z"/></g></g></svg>