<svg xmlns="http://www.w3.org/2000/svg" viewBox="0 0 130.99 130.99">
<g class="edit" fill="#ffffff">
<path class="cls-1" d="M19.18,19.18a65.5,65.5,0,1,0,92.63,0A65.52,65.52,0,0,0,19.18,19.18Zm81.94,28.3L67.78,80.82l8.31-.6A11.09,11.09,0,0,1,88,90.49h0A11.09,11.09,0,0,1,77.7,102.37L41.12,105a11.05,11.05,0,0,1-9-3.62c-.11-.1-.23-.19-.33-.29a11.09,11.09,0,0,1-3-5.51A11.25,11.25,0,0,1,28,91.42V54.74A11.1,11.1,0,0,1,39.06,43.63h0A11.11,11.11,0,0,1,50.17,54.74V67L85.41,31.77a11.11,11.11,0,0,1,15.71,15.71Z"/>
</g></svg>