<svg xmlns="http://www.w3.org/2000/svg" viewBox="0 0 67.79 67.79"><defs><style>.cls-1{fill:#fff;}</style></defs><g id="Capa_2" data-name="Capa 2"><g id="Capa_1-2" data-name="Capa 1"><path class="cls-1" d="M57.87,9.93a33.9,33.9,0,1,0,0,47.94A33.9,33.9,0,0,0,57.87,9.93ZM33.55,63.82A29.93,29.93,0,1,1,63.48,33.9,29.93,29.93,0,0,1,33.55,63.82Z"/><path class="cls-1" d="M51.35,15.46l-.17-.15a5.7,5.7,0,0,0-4.67-1.87L27.58,14.81a5.75,5.75,0,1,0,.84,11.47l4.3-.31L15.46,43.22a5.75,5.75,0,0,0,8.13,8.13L41.83,33.11v6.35a5.75,5.75,0,0,0,5.75,5.75h0a5.74,5.74,0,0,0,5.75-5.75v-19a5.6,5.6,0,0,0-.43-2.17A5.7,5.7,0,0,0,51.35,15.46Z"/></g></g></svg>