<svg xmlns="http://www.w3.org/2000/svg" viewBox="0 0 67.79 67.79"><defs><style>.cls-1{fill:#fff;}</style></defs><g id="Capa_2" data-name="Capa 2"><g id="Capa_1-2" data-name="Capa 1"><path class="cls-1" d="M57.87,57.87a33.9,33.9,0,1,0-47.94,0A33.91,33.91,0,0,0,57.87,57.87ZM15.46,43.22,32.72,26l-4.3.31A5.76,5.76,0,0,1,22.26,21h0a5.76,5.76,0,0,1,5.32-6.15l18.93-1.37a5.7,5.7,0,0,1,4.67,1.87l.17.15a5.7,5.7,0,0,1,1.55,2.85,5.6,5.6,0,0,1,.43,2.17v19a5.74,5.74,0,0,1-5.75,5.75h0a5.75,5.75,0,0,1-5.75-5.75V33.11L23.59,51.35a5.75,5.75,0,0,1-8.13-8.13Z"/></g></g></svg>