<svg xmlns="http://www.w3.org/2000/svg" viewBox="0 0 130.99 130.99">
<g class="edit" fill="#1994E6">
<path class="cls-1" d="M65.5,0A65.5,65.5,0,1,0,131,65.5,65.49,65.49,0,0,0,65.5,0ZM57.71,56c.55.29,1.1.58,1.66.86C69.41,62,79.08,65.46,86.7,67a147.32,147.32,0,0,1-21,1.38c-18.6,0-33.68-2.82-33.68-6.3C32,59.15,43,56.67,57.71,56Zm41.63,47.66h-.1a1.27,1.27,0,0,1,.1.46c0,3.48-15.08,6.29-33.68,6.29S32,107.6,32,104.12a1.27,1.27,0,0,1,.1-.46H32v-10h.09c1.17,3.27,15.76,5.86,33.59,5.86s32.42-2.59,33.6-5.86h.08Zm0-13.93h-.1a1.32,1.32,0,0,1,.1.46c0,3.48-15.08,6.29-33.68,6.29S32,93.67,32,90.19a1.32,1.32,0,0,1,.1-.46H32v-10h.09c1.17,3.28,15.76,5.87,33.59,5.87S98.08,83,99.26,79.74h.08Zm0-13.84h-.1a1.23,1.23,0,0,1,.1.46c0,3.47-15.08,6.29-33.68,6.29S32,79.82,32,76.35a1.23,1.23,0,0,1,.1-.46H32v-10h.09c1.17,3.28,15.76,5.87,33.59,5.87s32.42-2.59,33.6-5.87h.08Zm-.86-14.08-.09,0a1.4,1.4,0,0,1-.1.46C96.88,65.4,82,61.85,65,54.3S35.32,38.05,36.73,34.88A1.17,1.17,0,0,1,37,34.5l-.09,0L41,25.32l.08,0c-.26,3.47,12,11.76,28.31,19s30.68,10.8,33.09,8.28l.07,0Zm6.1-12.72c-1.41,3.18-16.34-.37-33.33-7.92S41.61,24.92,43,21.74s16.34.38,33.33,7.93S106,45.92,104.58,49.09Z"/>
</g></svg>