<svg xmlns="http://www.w3.org/2000/svg" viewBox="0 0 67.79 67.79"><defs><style>.cls-1{fill:#fff;}</style></defs><g id="Capa_2" data-name="Capa 2"><g id="Capa_1-2" data-name="Capa 1"><path class="cls-1" d="M33.9,0A33.9,33.9,0,1,0,67.79,33.9,33.9,33.9,0,0,0,33.9,0Zm-4,29,.86.45a59.07,59.07,0,0,0,14.14,5.26A75.53,75.53,0,0,1,34,35.4c-9.62,0-17.43-1.45-17.43-3.25C16.55,30.61,22.23,29.33,29.87,29ZM51.41,53.65h0a.69.69,0,0,1,0,.24c0,1.8-7.8,3.25-17.43,3.25s-17.43-1.45-17.43-3.25a.69.69,0,0,1,.05-.24h-.05V48.48h.05c.61,1.69,8.15,3,17.38,3s16.78-1.34,17.39-3h0Zm0-7.21h0a.69.69,0,0,1,0,.24c0,1.8-7.8,3.25-17.43,3.25s-17.43-1.45-17.43-3.25a.69.69,0,0,1,.05-.24h-.05V41.27h.05c.61,1.69,8.15,3,17.38,3s16.78-1.34,17.39-3h0Zm0-7.17h0a.69.69,0,0,1,0,.24c0,1.8-7.8,3.26-17.43,3.26s-17.43-1.46-17.43-3.26a.69.69,0,0,1,.05-.24h-.05V34.1h.05c.61,1.7,8.15,3,17.38,3s16.78-1.34,17.39-3h0ZM51,32l0,0a1,1,0,0,1-.05.24c-.73,1.64-8.45-.2-17.25-4.11S18.28,19.69,19,18.05a.66.66,0,0,1,.14-.2l0,0,2.1-4.72h0c-.13,1.8,6.22,6.09,14.65,9.84S51.78,28.55,53,27.24l0,0Zm3.15-6.58c-.73,1.64-8.45-.2-17.25-4.1S21.54,12.9,22.27,11.25s8.45.2,17.25,4.11S54.85,23.77,54.12,25.41Z"/></g></g></svg>