<svg xmlns="http://www.w3.org/2000/svg" viewBox="0 0 67.79 67.79"><defs><style>.cls-1{fill:#fff;}</style></defs><g id="Capa_2" data-name="Capa 2"><g id="Capa_1-2" data-name="Capa 1"><path class="cls-1" d="M33.9,0A33.9,33.9,0,1,0,67.79,33.9,33.9,33.9,0,0,0,33.9,0Zm0,63.82A29.93,29.93,0,1,1,63.82,33.9,29.93,29.93,0,0,1,33.9,63.82Z"/><path class="cls-1" d="M34,37.14c-9.23,0-16.77-1.34-17.38-3h-.05v5.17h.05a.69.69,0,0,0-.05.24c0,1.8,7.81,3.26,17.43,3.26s17.43-1.46,17.43-3.26a.69.69,0,0,0,0-.24h0V34.1h0C50.76,35.8,43.21,37.14,34,37.14Z"/><path class="cls-1" d="M34,44.3c-9.23,0-16.77-1.34-17.38-3h-.05v5.17h.05a.69.69,0,0,0-.05.24c0,1.8,7.81,3.25,17.43,3.25s17.43-1.45,17.43-3.25a.69.69,0,0,0,0-.24h0V41.27h0C50.76,43,43.21,44.3,34,44.3Z"/><path class="cls-1" d="M34,35.4a75.53,75.53,0,0,0,10.89-.71,59.07,59.07,0,0,1-14.14-5.26L29.87,29c-7.64.35-13.32,1.63-13.32,3.17C16.55,34,24.36,35.4,34,35.4Z"/><path class="cls-1" d="M34,51.51c-9.23,0-16.77-1.34-17.38-3h-.05v5.17h.05a.69.69,0,0,0-.05.24c0,1.8,7.81,3.25,17.43,3.25s17.43-1.45,17.43-3.25a.69.69,0,0,0,0-.24h0V48.48h0C50.76,50.17,43.21,51.51,34,51.51Z"/><path class="cls-1" d="M39.52,15.36C30.72,11.45,23,9.61,22.27,11.25s5.81,6.15,14.6,10.06,16.52,5.74,17.25,4.1S48.31,19.26,39.52,15.36Z"/><path class="cls-1" d="M35.9,23c-8.43-3.75-14.78-8-14.65-9.84h0l-2.1,4.72,0,0a.66.66,0,0,0-.14.2c-.73,1.64,5.81,6.14,14.61,10.05s16.52,5.75,17.25,4.11a1,1,0,0,0,.05-.24l0,0,2.1-4.73,0,0C51.78,28.55,44.34,26.71,35.9,23Z"/></g></g></svg>