<?xml version="1.0" encoding="utf-8"?>
<!-- Generator: Adobe Illustrator 25.2.3, SVG Export Plug-In . SVG Version: 6.00 Build 0)  -->
<svg version="1.1" id="Capa_1" xmlns="http://www.w3.org/2000/svg" xmlns:xlink="http://www.w3.org/1999/xlink" x="0px" y="0px"
	 viewBox="0 0 67.8 67.8" style="enable-background:new 0 0 67.8 67.8;" xml:space="preserve">
<style type="text/css">
	.st0{fill:#545454;}
</style>
<g id="Capa_1-2">
	<path class="st0" d="M33.9,0C15.2,0,0,15.2,0,33.9s15.2,33.9,33.9,33.9s33.9-15.2,33.9-33.9c0,0,0,0,0,0C67.8,15.2,52.6,0,33.9,0z
		 M29.9,29l0.9,0.5c4.5,2.4,9.2,4.1,14.1,5.3c-3.6,0.5-7.3,0.7-10.9,0.7c-9.6,0-17.4-1.5-17.4-3.2C16.5,30.6,22.2,29.3,29.9,29
		L29.9,29z M51.4,53.6L51.4,53.6c0,0.1,0,0.2,0,0.2c0,1.8-7.8,3.2-17.4,3.2s-17.4-1.5-17.4-3.2c0-0.1,0-0.2,0-0.2h0v-5.2h0
		c0.6,1.7,8.1,3,17.4,3s16.8-1.3,17.4-3l0,0L51.4,53.6z M51.4,46.4L51.4,46.4c0,0.1,0,0.2,0,0.2c0,1.8-7.8,3.2-17.4,3.2
		s-17.4-1.5-17.4-3.2c0-0.1,0-0.2,0-0.2h0v-5.2h0c0.6,1.7,8.1,3,17.4,3s16.8-1.3,17.4-3l0,0L51.4,46.4z M51.4,39.3L51.4,39.3
		c0,0.1,0,0.2,0,0.2c0,1.8-7.8,3.3-17.4,3.3s-17.4-1.5-17.4-3.3c0-0.1,0-0.2,0-0.2h0v-5.2h0c0.6,1.7,8.1,3,17.4,3s16.8-1.3,17.4-3
		l0,0L51.4,39.3z M51,32L51,32c0,0.1,0,0.2,0,0.2c-0.7,1.6-8.5-0.2-17.2-4.1S18.3,19.7,19,18c0-0.1,0.1-0.1,0.1-0.2l0,0l2.1-4.7l0,0
		c-0.1,1.8,6.2,6.1,14.6,9.8s15.9,5.6,17.1,4.3l0,0L51,32z M54.2,25.4c-0.7,1.6-8.5-0.2-17.2-4.1s-15.4-8.4-14.6-10.1
		s8.5,0.2,17.2,4.1S54.8,23.8,54.2,25.4L54.2,25.4z"/>
</g>
</svg>
