<?xml version="1.0" encoding="UTF-8" standalone="no"?>
<svg
   version="1.1"
   id="Capa_1"
   x="0px"
   y="0px"
   viewBox="0 0 67.8 67.8"
   style="enable-background:new 0 0 67.8 67.8;"
   xml:space="preserve"
   sodipodi:docname="stake_icon.svg"
   inkscape:version="1.1 (c68e22c387, 2021-05-23)"
   xmlns:inkscape="http://www.inkscape.org/namespaces/inkscape"
   xmlns:sodipodi="http://sodipodi.sourceforge.net/DTD/sodipodi-0.dtd"
   xmlns="http://www.w3.org/2000/svg"
   xmlns:svg="http://www.w3.org/2000/svg"><defs
   id="defs10" /><sodipodi:namedview
   id="namedview8"
   pagecolor="#ffffff"
   bordercolor="#666666"
   borderopacity="1.0"
   inkscape:pageshadow="2"
   inkscape:pageopacity="0.0"
   inkscape:pagecheckerboard="0"
   showgrid="false"
   inkscape:zoom="8.3225839"
   inkscape:cx="22.048441"
   inkscape:cy="38.38952"
   inkscape:window-width="1842"
   inkscape:window-height="983"
   inkscape:window-x="-8"
   inkscape:window-y="-8"
   inkscape:window-maximized="1"
   inkscape:current-layer="Capa_1" />
<style
   type="text/css"
   id="style2">	.st0{fill:#545454;}</style>
<ellipse
   style="fill:#ffd2e6;fill-opacity:1"
   id="path849"
   cx="33.883709"
   cy="33.823631"
   rx="33.883709"
   ry="33.823631" /><g
   id="Capa_1-2"
   transform="matrix(0.89721254,0,0,0.89721254,3.4844948,3.4844948)">
	<path
   class="st0"
   d="M 33.9,0 C 15.2,0 0,15.2 0,33.9 c 0,18.7 15.2,33.9 33.9,33.9 18.7,0 33.9,-15.2 33.9,-33.9 0,0 0,0 0,0 C 67.8,15.2 52.6,0 33.9,0 Z m -4,29 0.9,0.5 c 4.5,2.4 9.2,4.1 14.1,5.3 -3.6,0.5 -7.3,0.7 -10.9,0.7 -9.6,0 -17.4,-1.5 -17.4,-3.2 -0.1,-1.7 5.6,-3 13.3,-3.3 z m 21.5,24.6 v 0 c 0,0.1 0,0.2 0,0.2 0,1.8 -7.8,3.2 -17.4,3.2 -9.6,0 -17.4,-1.5 -17.4,-3.2 0,-0.1 0,-0.2 0,-0.2 v 0 -5.2 0 c 0.6,1.7 8.1,3 17.4,3 9.3,0 16.8,-1.3 17.4,-3 v 0 z m 0,-7.2 v 0 c 0,0.1 0,0.2 0,0.2 0,1.8 -7.8,3.2 -17.4,3.2 -9.6,0 -17.4,-1.5 -17.4,-3.2 0,-0.1 0,-0.2 0,-0.2 v 0 -5.2 0 c 0.6,1.7 8.1,3 17.4,3 9.3,0 16.8,-1.3 17.4,-3 v 0 z m 0,-7.1 v 0 c 0,0.1 0,0.2 0,0.2 0,1.8 -7.8,3.3 -17.4,3.3 -9.6,0 -17.4,-1.5 -17.4,-3.3 0,-0.1 0,-0.2 0,-0.2 v 0 -5.2 0 c 0.6,1.7 8.1,3 17.4,3 9.3,0 16.8,-1.3 17.4,-3 v 0 z M 51,32 v 0 c 0,0.1 0,0.2 0,0.2 C 50.3,33.8 42.5,32 33.8,28.1 25.1,24.2 18.3,19.7 19,18 c 0,-0.1 0.1,-0.1 0.1,-0.2 v 0 l 2.1,-4.7 v 0 c -0.1,1.8 6.2,6.1 14.6,9.8 8.4,3.7 15.9,5.6 17.1,4.3 v 0 z m 3.2,-6.6 C 53.5,27 45.7,25.2 37,21.3 28.3,17.4 21.6,12.9 22.4,11.2 c 0.8,-1.7 8.5,0.2 17.2,4.1 8.7,3.9 15.2,8.5 14.6,10.1 z"
   id="path4" />
</g>
</svg>
