<svg xmlns="http://www.w3.org/2000/svg" viewBox="0 0 67.79 67.79"
<style
   type="text/css"
   id="style2">	.st0{fill:#545454;}</style>
<ellipse
   style="fill:#e5e5e5;fill-opacity:1"
   id="path849"
   cx="33.883709"
   cy="33.823631"
   rx="33.883709"
   ry="33.823631" /><g
   id="Capa_1-2"
   transform="matrix(0.84759101,0,0,0.84759101,5.1666647,5.1666647)"
   style="fill:#4d4d4d;fill-opacity:1">
	<path
   class="st0"
   d="M 33.9,0 C 15.2,0 0,15.2 0,33.9 c 0,18.7 15.2,33.9 33.9,33.9 18.7,0 33.9,-15.2 33.9,-33.9 0,0 0,0 0,0 C 67.8,15.2 52.6,0 33.9,0 Z m -4,29 0.9,0.5 c 4.5,2.4 9.2,4.1 14.1,5.3 -3.6,0.5 -7.3,0.7 -10.9,0.7 -9.6,0 -17.4,-1.5 -17.4,-3.2 -0.1,-1.7 5.6,-3 13.3,-3.3 z m 21.5,24.6 v 0 c 0,0.1 0,0.2 0,0.2 0,1.8 -7.8,3.2 -17.4,3.2 -9.6,0 -17.4,-1.5 -17.4,-3.2 0,-0.1 0,-0.2 0,-0.2 v 0 -5.2 0 c 0.6,1.7 8.1,3 17.4,3 9.3,0 16.8,-1.3 17.4,-3 v 0 z m 0,-7.2 v 0 c 0,0.1 0,0.2 0,0.2 0,1.8 -7.8,3.2 -17.4,3.2 -9.6,0 -17.4,-1.5 -17.4,-3.2 0,-0.1 0,-0.2 0,-0.2 v 0 -5.2 0 c 0.6,1.7 8.1,3 17.4,3 9.3,0 16.8,-1.3 17.4,-3 v 0 z m 0,-7.1 v 0 c 0,0.1 0,0.2 0,0.2 0,1.8 -7.8,3.3 -17.4,3.3 -9.6,0 -17.4,-1.5 -17.4,-3.3 0,-0.1 0,-0.2 0,-0.2 v 0 -5.2 0 c 0.6,1.7 8.1,3 17.4,3 9.3,0 16.8,-1.3 17.4,-3 v 0 z M 51,32 v 0 c 0,0.1 0,0.2 0,0.2 C 50.3,33.8 42.5,32 33.8,28.1 25.1,24.2 18.3,19.7 19,18 c 0,-0.1 0.1,-0.1 0.1,-0.2 v 0 l 2.1,-4.7 v 0 c -0.1,1.8 6.2,6.1 14.6,9.8 8.4,3.7 15.9,5.6 17.1,4.3 v 0 z m 3.2,-6.6 C 53.5,27 45.7,25.2 37,21.3 28.3,17.4 21.6,12.9 22.4,11.2 c 0.8,-1.7 8.5,0.2 17.2,4.1 8.7,3.9 15.2,8.5 14.6,10.1 z"
   id="path4"
   style="fill:#4d4d4d;fill-opacity:1" />
</g>
</svg>
