<?xml version="1.0" encoding="UTF-8" standalone="no"?>
<svg
   viewBox="0 0 67.79 67.79"
   version="1.1"
   id="svg407"
   sodipodi:docname="stnear.svg"
   inkscape:version="1.1 (c68e22c387, 2021-05-23)"
   xmlns:inkscape="http://www.inkscape.org/namespaces/inkscape"
   xmlns:sodipodi="http://sodipodi.sourceforge.net/DTD/sodipodi-0.dtd"
   xmlns="http://www.w3.org/2000/svg"
   xmlns:svg="http://www.w3.org/2000/svg">
  <sodipodi:namedview
     id="namedview409"
     pagecolor="#505050"
     bordercolor="#eeeeee"
     borderopacity="1"
     inkscape:pageshadow="0"
     inkscape:pageopacity="0"
     inkscape:pagecheckerboard="0"
     showgrid="false"
     showguides="true"
     inkscape:guide-bbox="true"
     inkscape:zoom="6.4390025"
     inkscape:cx="-3.9602407"
     inkscape:cy="32.380792"
     inkscape:window-width="1842"
     inkscape:window-height="983"
     inkscape:window-x="-8"
     inkscape:window-y="-8"
     inkscape:window-maximized="1"
     inkscape:current-layer="svg407">
    <sodipodi:guide
       position="150.56679,73.380928"
       orientation="1,0"
       id="guide616" />
    <sodipodi:guide
       position="-90.54197,102.11208"
       orientation="0,-1"
       id="guide618" />
  </sodipodi:namedview>
  <defs
     id="defs389">
    <style
       id="style387">.cls-1{fill:#fff;}</style>
  </defs>
  <ellipse
     style="fill:#22c6ff;stroke:none;stroke-width:0.934129"
     id="path865"
     cx="34.4697"
     cy="33.468357"
     rx="32.35738"
     ry="32.536091" />
  <path
     style="fill:#ffd200;fill-opacity:1;stroke:none;stroke-width:0.870796px;stroke-linecap:butt;stroke-linejoin:miter;stroke-opacity:1"
     d="m 15.734943,26.525122 8.732556,-3.811759 2.964797,10.306785 13.960933,-0.01029 3.36067,-11.521722 6.717352,2.994954 0.134347,27.226858 -34.392838,0.136135 z"
     id="path1095" />
  <path
     style="fill:#37ceff;fill-opacity:1;stroke:none;stroke-width:0.870796px;stroke-linecap:butt;stroke-linejoin:miter;stroke-opacity:1"
     d="m 34.444018,14.136245 -9.976519,8.577118 1.902055,8.640959 6.42746,4.427932 5.239534,-0.408402 4.448142,-4.086296 2.269209,-9.799403 -10.309881,-7.351908"
     id="path2560" />
  <path
     id="path505-7"
     d="M 34.479499,3.7526689 A 29.325561,29.71569 0 1 0 63.79526,33.468701 29.325561,29.71569 0 0 0 34.479499,3.7526689 Z M 34.44402,14.136245 c 1.688207,5.105037 7.489872,8.556323 7.489872,12.729084 0,4.172761 -3.383828,7.555271 -7.557454,7.555272 -4.173628,-10e-7 -7.557455,-3.382511 -7.557455,-7.555272 0,-4.172762 5.869656,-7.760181 7.625037,-12.729084 z m 2.754003,8.849581 a 2.1831391,2.1441151 0 0 0 -0.566008,0.07191 2.1831391,2.1441151 0 0 0 -0.525457,0.215717 2.1831391,2.1441151 0 0 0 -0.452804,0.340698 2.1831391,2.1441151 0 0 0 -0.346363,0.44342 2.1831391,2.1441151 0 0 0 -0.217954,0.51704 2.1831391,2.1441151 0 0 0 -0.07435,0.554703 2.1831391,2.1441151 0 0 0 0.07435,0.554704 2.1831391,2.1441151 0 0 0 0.217954,0.517039 2.1831391,2.1441151 0 0 0 0.346363,0.445133 2.1831391,2.1441151 0 0 0 0.452804,0.340698 2.1831391,2.1441151 0 0 0 0.525457,0.214005 2.1831391,2.1441151 0 0 0 0.566008,0.07362 2.1831391,2.1441151 0 0 0 0.564317,-0.07362 2.1831391,2.1441151 0 0 0 0.527146,-0.214005 2.1831391,2.1441151 0 0 0 0.451116,-0.340698 2.1831391,2.1441151 0 0 0 0.348051,-0.445133 2.1831391,2.1441151 0 0 0 0.217955,-0.517039 2.1831391,2.1441151 0 0 0 0.07435,-0.554704 2.1831391,2.1441151 0 0 0 -0.01016,-0.210581 2.1831391,2.1441151 0 0 0 -0.03211,-0.207158 2.1831391,2.1441151 0 0 0 -0.05237,-0.203735 2.1831391,2.1441151 0 0 0 -0.07265,-0.198598 2.1831391,2.1441151 0 0 0 -0.09124,-0.190037 2.1831391,2.1441151 0 0 0 -0.109822,-0.181477 2.1831391,2.1441151 0 0 0 -0.126719,-0.16778 2.1831391,2.1441151 0 0 0 -0.145303,-0.155797 2.1831391,2.1441151 0 0 0 -0.15882,-0.1421 2.1831391,2.1441151 0 0 0 -0.170646,-0.12498 2.1831391,2.1441151 0 0 0 -0.184164,-0.107858 2.1831391,2.1441151 0 0 0 -0.1943,-0.09074 2.1831391,2.1441151 0 0 0 -0.201059,-0.0702 2.1831391,2.1441151 0 0 0 -0.207817,-0.05136 2.1831391,2.1441151 0 0 0 -0.212886,-0.03082 2.1831391,2.1441151 0 0 0 -0.212886,-0.01029 z m -11.80842,4.810857 a 9.0684239,9.2911643 0 0 0 0.979951,3.557639 14.341545,2.1781485 0 0 1 -6.604537,-1.835317 14.341545,2.1781485 0 0 1 5.624586,-1.722322 z m 18.034491,0.06849 a 14.341545,2.1781485 0 0 1 5.024785,1.65384 14.341545,2.1781485 0 0 1 -5.964188,1.768545 9.0684239,9.2911643 0 0 0 0.939403,-3.422385 z m 5.991221,2.814608 v 4.557474 a 0.59689196,0.60483262 0 0 1 0,0.210581 c 0,1.577825 -6.755854,2.84885 -15.07774,2.84885 -8.321884,0 -15.07774,-1.271025 -15.07774,-2.84885 a 0.59689196,0.60483262 0 0 1 0.04224,-0.210581 h -0.04224 V 30.70546 h 0.04224 c 0.363135,1.001351 3.566131,1.870396 8.130219,2.31469 a 9.0684239,9.2911643 0 0 0 6.977932,3.37445 9.0684239,9.2911643 0 0 0 6.983001,-3.384722 C 45.8713,32.567226 49.021202,31.71095 49.415314,30.67978 Z m 0.02703,6.418471 v 4.557475 a 0.59689196,0.60483262 0 0 1 0,0.21058 c 0,1.577825 -6.755854,2.848851 -15.07774,2.848851 -8.321885,0 -15.077739,-1.271026 -15.077739,-2.848851 a 0.59689196,0.60483262 0 0 1 0.04224,-0.21058 h -0.04224 v -4.531794 h 0.04224 c 0.527688,1.455104 7.050991,2.629707 15.0355,2.629707 7.967212,0 14.498151,-1.138924 15.077741,-2.655388 z m 0,6.319172 v 4.559187 a 0.59689196,0.60483262 0 0 1 0,0.210582 c 0,1.577824 -6.755854,2.84885 -15.07774,2.84885 -8.321885,0 -15.077739,-1.271026 -15.077739,-2.84885 a 0.59689196,0.60483262 0 0 1 0.04224,-0.210582 h -0.04224 v -4.531794 h 0.04224 c 0.527688,1.455105 7.050991,2.629708 15.0355,2.629708 7.967212,0 14.498151,-1.175698 15.077741,-2.657101 z"
     style="fill:#ffffff;fill-opacity:1;stroke:none;stroke-width:0.870796" />
</svg>
