<?xml version="1.0" encoding="UTF-8" standalone="no"?>
<svg
   viewBox="0 0 67.79 67.79"
   version="1.1"
   id="svg407"
  <defs
     id="defs389">
    <style
       id="style387">.cls-1{fill:#fff;}</style>
  </defs>
  <path
     style="fill:#ffffff"
     d="M 33.934075,0.31108033 A 33.9,33.9 0 1 0 67.8247,34.211471 33.9,33.9 0 0 0 33.934075,0.31108033 Z"
     id="path505" />
  <path
     style="fill:#ffbd00;stroke:none;stroke-width:1px;stroke-linecap:butt;stroke-linejoin:miter;stroke-opacity:1;fill-opacity:1"
     d="m 11.80307,27.799337 12.386823,0.359399 2.361328,5.95899 7.615562,3.310432 8.52311,-3.322151 2.347657,-5.869141 12.269463,0.02838 -2.484857,25.935694 -22.984927,4.659107 -18.947034,-6.212143 z"
     id="path1051" />
  <path
     style="fill:#ffb6ff;stroke:none;stroke-width:1px;stroke-linecap:butt;stroke-linejoin:miter;stroke-opacity:1;fill-opacity:1"
     d="m 34.65669,12.574752 -10.429335,9.633657 1.095351,10.008921 8.844077,5.210828 9.784829,-5.286995 1.08642,-11.330486 z"
     id="path1815" />
  <path
     id="path928"
     style="fill:#666666;fill-opacity:1"
     d="m 33.928175,4.2817834 a 29.93,29.93 0 0 1 4.68164,0.3671875 29.93,29.93 0 0 1 25.244141,29.5722651 29.93,29.93 0 0 1 -29.919922,29.919922 29.93,29.93 0 0 1 -0.0059,-59.8593746 z m 0.728515,8.2929686 c -2.029199,5.66858 -8.814453,9.761149 -8.814453,14.521484 0,4.760334 3.911665,8.619141 8.736328,8.619141 4.824662,-10e-7 8.736328,-3.858807 8.736328,-8.619141 0,-4.760334 -6.706656,-8.6976 -8.658203,-14.521484 z m 3.183594,10.095703 a 2.5236828,2.4460311 0 0 1 0.246094,0.01172 2.5236828,2.4460311 0 0 1 0.246093,0.03516 2.5236828,2.4460311 0 0 1 0.240235,0.05859 2.5236828,2.4460311 0 0 1 0.232422,0.08008 2.5236828,2.4460311 0 0 1 0.224609,0.103515 2.5236828,2.4460311 0 0 1 0.212891,0.123047 2.5236828,2.4460311 0 0 1 0.197265,0.142579 2.5236828,2.4460311 0 0 1 0.183594,0.162109 2.5236828,2.4460311 0 0 1 0.167969,0.177734 2.5236828,2.4460311 0 0 1 0.146484,0.191407 2.5236828,2.4460311 0 0 1 0.126953,0.207031 2.5236828,2.4460311 0 0 1 0.105469,0.216797 2.5236828,2.4460311 0 0 1 0.08398,0.226562 2.5236828,2.4460311 0 0 1 0.06055,0.232422 2.5236828,2.4460311 0 0 1 0.03711,0.236328 2.5236828,2.4460311 0 0 1 0.01172,0.240234 2.5236828,2.4460311 0 0 1 -0.08594,0.632813 2.5236828,2.4460311 0 0 1 -0.251953,0.589844 2.5236828,2.4460311 0 0 1 -0.402344,0.507812 2.5236828,2.4460311 0 0 1 -0.521484,0.388672 2.5236828,2.4460311 0 0 1 -0.609375,0.244141 2.5236828,2.4460311 0 0 1 -0.652344,0.08398 2.5236828,2.4460311 0 0 1 -0.654297,-0.08398 2.5236828,2.4460311 0 0 1 -0.607422,-0.244141 2.5236828,2.4460311 0 0 1 -0.523437,-0.388672 2.5236828,2.4460311 0 0 1 -0.400391,-0.507812 2.5236828,2.4460311 0 0 1 -0.251953,-0.589844 2.5236828,2.4460311 0 0 1 -0.08594,-0.632813 2.5236828,2.4460311 0 0 1 0.08594,-0.632812 2.5236828,2.4460311 0 0 1 0.251953,-0.589844 2.5236828,2.4460311 0 0 1 0.400391,-0.505859 2.5236828,2.4460311 0 0 1 0.523437,-0.388672 2.5236828,2.4460311 0 0 1 0.607422,-0.246094 2.5236828,2.4460311 0 0 1 0.654297,-0.08203 z m -13.650391,5.488281 a 16.578655,2.4848568 0 0 0 -6.501953,1.964844 16.578655,2.4848568 0 0 0 7.634766,2.09375 10.48299,10.599467 0 0 1 -1.132813,-4.058594 z m 20.847657,0.07813 a 10.48299,10.599467 0 0 1 -1.085938,3.904297 16.578655,2.4848568 0 0 0 6.894531,-2.017578 16.578655,2.4848568 0 0 0 -5.808593,-1.886719 z m 6.925781,3.210938 c -0.455589,1.176371 -4.096838,2.15322 -9.273438,2.658203 a 10.48299,10.599467 0 0 1 -8.072265,3.861328 10.48299,10.599467 0 0 1 -8.066407,-3.849609 C 21.275187,33.61087 17.572565,32.619453 17.152784,31.477101 h -0.04883 v 5.169921 h 0.04883 a 0.69,0.69 0 0 0 -0.04883,0.240235 c 0,1.8 7.809688,3.25 17.429687,3.25 9.620001,0 17.429688,-1.45 17.429688,-3.25 a 0.69,0.69 0 0 0 0,-0.240235 z m 0.03125,7.322265 c -0.67,1.73 -8.219687,3.029297 -17.429688,3.029297 -9.229999,0 -16.770859,-1.34 -17.380859,-3 h -0.04883 v 5.169922 h 0.04883 a 0.69,0.69 0 0 0 -0.04883,0.240234 c 0,1.8 7.809688,3.25 17.429687,3.25 9.620001,0 17.429688,-1.45 17.429688,-3.25 a 0.69,0.69 0 0 0 0,-0.240234 z m 0,7.208985 c -0.67,1.69 -8.219687,3.03125 -17.429688,3.03125 -9.229999,0 -16.770859,-1.34 -17.380859,-3 h -0.04883 v 5.169922 h 0.04883 a 0.69,0.69 0 0 0 -0.04883,0.240234 c 0,1.8 7.809688,3.25 17.429687,3.25 9.620001,0 17.429688,-1.45 17.429688,-3.25 a 0.69,0.69 0 0 0 0,-0.240234 z" />
</svg>
