<svg xmlns="http://www.w3.org/2000/svg" viewBox="0 0 65.51 65.51"><defs><style>.cls-1{fill:#fff;}</style></defs><g id="Capa_2" data-name="Capa 2"><g id="Capa_1-2" data-name="Capa 1"><path class="cls-1" d="M32.76,0A32.76,32.76,0,1,0,65.51,32.76,32.76,32.76,0,0,0,32.76,0Zm0,59.65a26.76,26.76,0,0,1-13.28-3.5l12.64-12a2.05,2.05,0,0,0,.07-2.9L23.41,32a2.05,2.05,0,0,0-2.9-.07L8.17,43.66A26.9,26.9,0,0,1,48.94,11.28l-6.76,6.43L37,12.22A7.71,7.71,0,0,0,26.07,12l-10,9.53a7.7,7.7,0,0,0-.54,10.6l7.94-7.55,2.15-2,4-3.85a3.4,3.4,0,0,1,4.81.12l11.2,11.78a3.41,3.41,0,0,1-.12,4.81l-4,3.85-2.15,2L31.4,48.8a7.71,7.71,0,0,0,10.66,0l10-9.54a7.71,7.71,0,0,0,.27-10.89l-5.21-5.49,6.91-6.57a26.89,26.89,0,0,1-21.3,43.3Z"/></g></g></svg>