<svg xmlns="http://www.w3.org/2000/svg" viewBox="0 0 66.64 66.64"><defs><style>.cls-1{fill:#fff;}</style></defs><g id="Capa_2" data-name="Capa 2"><g id="Capa_1-2" data-name="Capa 1"><path class="cls-1" d="M59.72,13l-8.57,8.14,6.46,6.8a9.55,9.55,0,0,1-.34,13.5L44.85,53.24a9.53,9.53,0,0,1-13.21-.05l9.84-9.35,2.66-2.54,5-4.77a4.23,4.23,0,0,0,.15-6L35.42,16a4.2,4.2,0,0,0-6-.15l-5,4.77-2.66,2.53L12,32.49a9.55,9.55,0,0,1,.67-13.14L25,7.54a9.54,9.54,0,0,1,13.5.34L45,14.67l8.37-8A33.33,33.33,0,0,0,2.85,46.83l15.3-14.54a2.53,2.53,0,0,1,3.59.09L32.62,43.82a2.53,2.53,0,0,1-.09,3.59L16.87,62.3A33.32,33.32,0,0,0,59.72,13Z"/></g></g></svg>