<?xml version="1.0" encoding="UTF-8" standalone="no"?>
<svg
   viewBox="0 0 67.79 67.79"
   version="1.1"
   id="svg407"
   sodipodi:docname="unstake_icon.svg"
   inkscape:version="1.1 (c68e22c387, 2021-05-23)"
   xmlns:inkscape="http://www.inkscape.org/namespaces/inkscape"
   xmlns:sodipodi="http://sodipodi.sourceforge.net/DTD/sodipodi-0.dtd"
   xmlns="http://www.w3.org/2000/svg"
   xmlns:svg="http://www.w3.org/2000/svg">
  <sodipodi:namedview
     id="namedview409"
     pagecolor="#505050"
     bordercolor="#eeeeee"
     borderopacity="1"
     inkscape:pageshadow="0"
     inkscape:pageopacity="0"
     inkscape:pagecheckerboard="0"
     showgrid="false"
     showguides="false"
     inkscape:guide-bbox="true"
     inkscape:zoom="6.4390025"
     inkscape:cx="-14.365579"
     inkscape:cy="31.138363"
     inkscape:window-width="1842"
     inkscape:window-height="983"
     inkscape:window-x="-8"
     inkscape:window-y="-8"
     inkscape:window-maximized="1"
     inkscape:current-layer="svg407">
    <sodipodi:guide
       position="150.56679,73.380928"
       orientation="1,0"
       id="guide616" />
    <sodipodi:guide
       position="-90.54197,102.11208"
       orientation="0,-1"
       id="guide618" />
  </sodipodi:namedview>
  <defs
     id="defs389">
    <style
       id="style387">.cls-1{fill:#fff;}</style>
  </defs>
  <ellipse
     style="fill:#ffceda;stroke-width:1.02952;fill-opacity:1"
     id="path950"
     cx="33.801937"
     cy="33.996017"
     rx="33.755108"
     ry="33.996017" />
  <path
     id="path505-7"
     d="M 33.780501,5.236939 A 28.930286,28.930286 0 1 0 62.70112,34.167558 28.930286,28.930286 0 0 0 33.780501,5.236939 Z M 33.410473,14.74269 43.719621,25.050171 H 39.307605 V 37.406148 H 27.645017 V 25.050171 h -4.543692 z m 7.752279,13.936101 c 4.402207,0.458892 7.372299,1.336421 7.377249,2.356853 0.005,1.022256 -2.96635,1.932941 -7.377249,2.440193 z m -15.174533,0.101675 v 4.752042 c -4.301351,-0.466235 -7.189037,-1.334057 -7.193901,-2.340185 -0.0049,-1.008142 2.882691,-1.90294 7.193901,-2.411857 z m 22.618454,3.796967 v 4.445351 a 0.58884653,0.58884653 0 0 1 0,0.205017 c 0,1.53612 -6.664792,2.781886 -14.874508,2.781886 -8.209714,0 -14.874509,-1.245766 -14.874509,-2.781886 a 0.58884653,0.58884653 0 0 1 0.04167,-0.205017 h -0.04167 v -4.412015 h 0.04167 c 0.332824,0.905716 3.089902,1.698521 7.088893,2.153503 v 4.165329 h 15.174533 v -4.13366 c 4.16404,-0.451485 7.069216,-1.267762 7.44392,-2.218508 z m 0,6.118817 v 4.437017 a 0.58884653,0.58884653 0 0 1 0,0.205016 c 0,1.536122 -6.664792,2.773553 -14.874508,2.773553 -8.209714,0 -14.874509,-1.237431 -14.874509,-2.773553 a 0.58884653,0.58884653 0 0 1 0.04167,-0.205016 h -0.04167 v -4.412015 h 0.04167 c 0.520575,1.416644 6.955951,2.560202 14.832839,2.560202 7.859822,0 14.302729,-1.108821 14.874508,-2.585204 z m 0,6.152152 v 4.438685 a 0.58884653,0.58884653 0 0 1 0,0.205016 c 0,1.536121 -6.664792,2.773552 -14.874508,2.773552 -8.209714,0 -14.874509,-1.237431 -14.874509,-2.773552 a 0.58884653,0.58884653 0 0 1 0.04167,-0.205016 h -0.04167 v -4.412016 h 0.04167 c 0.520575,1.416646 6.955951,2.560203 14.832839,2.560203 7.859822,0 14.302729,-1.144624 14.874508,-2.586872 z"
     style="fill:#575655;stroke-width:0.853401;fill-opacity:1" />
</svg>
