<svg xmlns="http://www.w3.org/2000/svg" viewBox="0 0 67.8 67.8"><defs><style>  .cls-1{fill:#fff;}</style></defs><ellipse cx="33.8" cy="34" rx="33.8" ry="34" fill="#ffceda"/><path d="M33.8 5.2A28.9 28.9 0 1 0 62.7 34.2 28.9 28.9 0 0 0 33.8 5.2ZM33.4 14.7 43.7 25.1H39.3V37.4H27.6V25.1h-4.5zm7.8 13.9c4.4 0.5 7.4 1.3 7.4 2.4 0 1-3 1.9-7.4 2.4zm-15.2 0.1v4.8c-4.3-0.5-7.2-1.3-7.2-2.3 0-1 2.9-1.9 7.2-2.4zm22.6 3.8v4.4a0.6 0.6 0 0 1 0 0.2c0 1.5-6.7 2.8-14.9 2.8-8.2 0-14.9-1.2-14.9-2.8a0.6 0.6 0 0 1 0-0.2h0v-4.4h0c0.3 0.9 3.1 1.7 7.1 2.2v4.2h15.2v-4.1c4.2-0.5 7.1-1.3 7.4-2.2zm0 6.1v4.4a0.6 0.6 0 0 1 0 0.2c0 1.5-6.7 2.8-14.9 2.8-8.2 0-14.9-1.2-14.9-2.8a0.6 0.6 0 0 1 0-0.2h0v-4.4h0c0.5 1.4 7 2.6 14.8 2.6 7.9 0 14.3-1.1 14.9-2.6zm0 6.2v4.4a0.6 0.6 0 0 1 0 0.2c0 1.5-6.7 2.8-14.9 2.8-8.2 0-14.9-1.2-14.9-2.8a0.6 0.6 0 0 1 0-0.2h0v-4.4h0c0.5 1.4 7 2.6 14.8 2.6 7.9 0 14.3-1.1 14.9-2.6z" style="fill:#575655;stroke-width:0.9"/></svg>