<?xml version="1.0" encoding="UTF-8" standalone="no"?>
<svg
   viewBox="0 0 67.79 67.79"
   version="1.1"
   id="svg407"
   sodipodi:docname="unstake_light.svg"
   inkscape:version="1.1 (c68e22c387, 2021-05-23)"
   xmlns:inkscape="http://www.inkscape.org/namespaces/inkscape"
   xmlns:sodipodi="http://sodipodi.sourceforge.net/DTD/sodipodi-0.dtd"
   xmlns="http://www.w3.org/2000/svg"
   xmlns:svg="http://www.w3.org/2000/svg">
  <sodipodi:namedview
     id="namedview409"
     pagecolor="#505050"
     bordercolor="#eeeeee"
     borderopacity="1"
     inkscape:pageshadow="0"
     inkscape:pageopacity="0"
     inkscape:pagecheckerboard="0"
     showgrid="false"
     showguides="true"
     inkscape:guide-bbox="true"
     inkscape:zoom="12.878005"
     inkscape:cx="19.917681"
     inkscape:cy="33.895"
     inkscape:window-width="3840"
     inkscape:window-height="2081"
     inkscape:window-x="-9"
     inkscape:window-y="-9"
     inkscape:window-maximized="1"
     inkscape:current-layer="svg407">
    <sodipodi:guide
       position="150.56679,73.380928"
       orientation="1,0"
       id="guide616" />
    <sodipodi:guide
       position="-90.54197,102.11208"
       orientation="0,-1"
       id="guide618" />
  </sodipodi:namedview>
  <defs
     id="defs389">
    <style
       id="style387">.cls-1{fill:#fff;}</style>
  </defs>
  <path
     id="path505"
     d="M 34.020858,0.18913144 A 33.9,33.9 0 1 0 67.911478,34.089522 33.9,33.9 0 0 0 34.020858,0.18913144 Z m -0.006,3.97070296 a 29.93,29.93 0 0 1 4.68164,0.367187 29.93,29.93 0 0 1 25.24413,29.5722656 29.93,29.93 0 0 1 -29.91991,29.919922 29.93,29.93 0 0 1 -0.006,-59.8593746 z M 33.716028,10.550459 21.63595,22.628584 h 5.324218 V 37.1071 h 13.66606 V 22.628584 h 5.16992 z m 9.08398,16.330078 v 5.621094 c 5.16861,-0.594389 8.65034,-1.661514 8.64454,-2.859375 -0.006,-1.195725 -3.48611,-2.223997 -8.64454,-2.761719 z m -17.781205,0.119141 c -5.0518,0.59634 -8.43541,1.644848 -8.429688,2.826172 0.0057,1.178962 3.38944,2.195861 8.429688,2.742187 z m 26.503905,4.449219 c -0.43907,1.114067 -3.84331,2.070567 -8.72266,2.599609 v 4.84375 H 25.018903 v -4.880859 c -4.685947,-0.533141 -7.916644,-1.462135 -8.306641,-2.523438 h -0.04883 v 5.169922 h 0.04883 a 0.69,0.69 0 0 0 -0.04883,0.240234 c 0,1.8 7.809687,3.259766 17.429686,3.259766 9.62,0 17.42969,-1.459766 17.42969,-3.259766 a 0.69,0.69 0 0 0 0,-0.240234 z m 0,7.169921 c -0.67,1.73 -8.21968,3.029297 -17.42969,3.029297 -9.229997,0 -16.770856,-1.34 -17.380856,-3 h -0.04883 v 5.169922 h 0.04883 a 0.69,0.69 0 0 0 -0.04883,0.240235 c 0,1.8 7.809687,3.25 17.429686,3.25 9.62,0 17.42969,-1.45 17.42969,-3.25 a 0.69,0.69 0 0 0 0,-0.240235 z m 0,7.208985 c -0.67,1.69 -8.21968,3.03125 -17.42969,3.03125 -9.229997,0 -16.770856,-1.34 -17.380856,-3 h -0.04883 v 5.169922 h 0.04883 a 0.69,0.69 0 0 0 -0.04883,0.240234 c 0,1.8 7.809687,3.25 17.429686,3.25 9.62,0 17.42969,-1.45 17.42969,-3.25 a 0.69,0.69 0 0 0 0,-0.240234 z"
     style="fill:#ffffff" />
</svg>
