<?xml version="1.0" encoding="UTF-8" standalone="no"?>
<svg
   viewBox="0 0 67.79 67.79"
   version="1.1"
   id="svg33"
   sodipodi:docname="withdraw_light.svg"
   inkscape:version="1.1 (c68e22c387, 2021-05-23)"
   xmlns:inkscape="http://www.inkscape.org/namespaces/inkscape"
   xmlns:sodipodi="http://sodipodi.sourceforge.net/DTD/sodipodi-0.dtd"
   xmlns="http://www.w3.org/2000/svg"
   xmlns:svg="http://www.w3.org/2000/svg">
  <sodipodi:namedview
     id="namedview35"
     pagecolor="#505050"
     bordercolor="#eeeeee"
     borderopacity="1"
     inkscape:pageshadow="0"
     inkscape:pageopacity="0"
     inkscape:pagecheckerboard="0"
     showgrid="false"
     inkscape:zoom="6.4390025"
     inkscape:cx="26.63456"
     inkscape:cy="40.456577"
     inkscape:window-width="1842"
     inkscape:window-height="983"
     inkscape:window-x="-8"
     inkscape:window-y="-8"
     inkscape:window-maximized="1"
     inkscape:current-layer="svg33" />
  <defs
     id="defs25">
    <style
       id="style23">.cls-1{fill:#fff;}</style>
  </defs>
  <path
     id="path29"
     class="cls-1"
     d="m 33.726562,8.5722656 a 5.75,5.75 0 0 0 -2.738281,1.2109375 h 7.113281 a 5.75,5.75 0 0 0 -4.375,-1.2109375 z m -4.527343,3.6972654 a 5.75,5.75 0 0 0 -0.404297,1.994141 v 0.0059 h 11.5 v -0.0059 a 5.75,5.75 0 0 0 -0.404297,-1.994141 z m -0.404297,4.484375 v 3.261719 h 11.5 v -3.261719 z m 0,5.746094 v 4.814453 h 11.5 V 22.5 Z m 0,7.298828 v 10.25586 l -4.490234,-4.490235 a 5.76,5.76 0 0 0 -8.128907,0 5.74,5.74 0 0 0 0,8.128906 l 13.419922,13.419922 a 5.69,5.69 0 0 0 1.839844,1.240235 5.71,5.71 0 0 0 3.109375,0.919922 h 0.230469 a 5.73,5.73 0 0 0 4.61914,-2 l 12.419922,-14.34961 a 5.75,5.75 0 1 0 -8.699219,-7.519531 l -2.820312,3.259765 V 29.798828 Z M 33.88,67.799998 a 33.9,33.9 0 1 0 -33.89,-33.9 33.9,33.9 0 0 0 33.89,33.9 z m 0,-63.82 a 29.93,29.93 0 1 1 -29.92,29.92 29.93,29.93 0 0 1 29.92,-29.92 z" />
</svg>
