<?xml version="1.0" encoding="UTF-8" standalone="no"?>
<svg
   viewBox="0 0 67.79 67.79"
   version="1.1"
   id="svg33"
   sodipodi:docname="withdraw_light.svg"
   inkscape:version="1.1 (c68e22c387, 2021-05-23)"
   xmlns:inkscape="http://www.inkscape.org/namespaces/inkscape"
   xmlns:sodipodi="http://sodipodi.sourceforge.net/DTD/sodipodi-0.dtd"
   xmlns="http://www.w3.org/2000/svg"
   xmlns:svg="http://www.w3.org/2000/svg">
  <sodipodi:namedview
     id="namedview35"
     pagecolor="#505050"
     bordercolor="#eeeeee"
     borderopacity="1"
     inkscape:pageshadow="0"
     inkscape:pageopacity="0"
     inkscape:pagecheckerboard="0"
     showgrid="false"
     inkscape:zoom="12.878005"
     inkscape:cx="33.895"
     inkscape:cy="33.895"
     inkscape:window-width="3840"
     inkscape:window-height="2081"
     inkscape:window-x="-9"
     inkscape:window-y="-9"
     inkscape:window-maximized="1"
     inkscape:current-layer="svg33" />
  <defs
     id="defs25">
    <style
       id="style23">.cls-1{fill:#fff;}</style>
  </defs>
  <g
     id="Capa_2"
     data-name="Capa 2">
    <g
       id="Capa_1-2"
       data-name="Capa 1">
      <path
         class="cls-1"
         d="M33.9,0A33.9,33.9,0,1,0,67.79,33.9,33.9,33.9,0,0,0,33.9,0Zm0,63.82A29.93,29.93,0,1,1,63.82,33.9,29.93,29.93,0,0,1,33.9,63.82Z"
         id="path27" />
      <path
         class="cls-1"
         d="m 24.664613,32.396133 2.82,-3.26 v 24.4 a -5.75,-5.75 0 1 0 11.5,0 v -25.79 l 4.49,4.49 a -5.76,-5.76 0 0 0 8.13,0 v 0 a -5.74,-5.74 0 0 0 0,-8.13 l -13.42,-13.42 a -5.69,-5.69 0 0 0 -1.84,-1.2400002 -5.71,-5.71 0 0 0 -3.11,-0.92 h -0.23 a -5.73,-5.73 0 0 0 -4.62,2.0000002 l -12.42,14.35 a -5.75,-5.75 0 1 0 8.7,7.52 z"
         id="path29" />
    </g>
  </g>
</svg>
