<?xml version="1.0" encoding="UTF-8" standalone="no"?>
<svg
   viewBox="0 0 67.79 67.79"
   version="1.1"
   id="svg33"
   sodipodi:docname="withdraw.svg"
   inkscape:version="1.1 (c68e22c387, 2021-05-23)"
   xmlns:inkscape="http://www.inkscape.org/namespaces/inkscape"
   xmlns:sodipodi="http://sodipodi.sourceforge.net/DTD/sodipodi-0.dtd"
   xmlns="http://www.w3.org/2000/svg"
   xmlns:svg="http://www.w3.org/2000/svg">
  <sodipodi:namedview
     id="namedview35"
     pagecolor="#505050"
     bordercolor="#eeeeee"
     borderopacity="1"
     inkscape:pageshadow="0"
     inkscape:pageopacity="0"
     inkscape:pagecheckerboard="0"
     showgrid="false"
     inkscape:zoom="12.878005"
     inkscape:cx="33.895"
     inkscape:cy="33.895"
     inkscape:window-width="3840"
     inkscape:window-height="2081"
     inkscape:window-x="-9"
     inkscape:window-y="-9"
     inkscape:window-maximized="1"
     inkscape:current-layer="svg33" />
  <defs
     id="defs25">
    <style
       id="style23">.cls-1{fill:#fff;}</style>
  </defs>
  <path
     id="path27"
     d="M 33.822833,-0.15547565 A 33.9,33.9 0 1 0 67.711503,33.744915 33.9,33.9 0 0 0 33.822833,-0.15547565 Z M 33.471273,8.44804 h 0.22851 a 5.71,5.71 0 0 1 3.11133,0.9199219 5.69,5.69 0 0 1 1.83984,1.2402341 l 13.41993,13.419922 a 5.74,5.74 0 0 1 0,8.13086 5.76,5.76 0 0 1 -8.13086,0 l -4.49024,-4.490235 v 25.789063 a 5.75,5.75 0 0 1 -11.5,0 V 29.059368 l -2.81836,3.259766 A 5.7507187,5.7507187 0 1 1 16.430254,24.79765 L 28.850173,10.44804 a 5.73,5.73 0 0 1 4.6211,-2 z"
     style="fill:#00ffff" />
</svg>
