<!--Scalable Vector Graphic-->
<svg>
  <defs>

    <g id="back-icon">
		<path class="cls-1" d="M3.77,53.84,34.28,85A13.2,13.2,0,1,0,53.14,66.51l-21.5-22L54,22.64A13.2,13.2,0,0,0,54.22,4h0a13.2,13.2,0,0,0-18.67-.2L4.4,34.28a13.16,13.16,0,0,0-2.79,4A13.21,13.21,0,0,0,3.77,53.84Z"/>
    <g>

    <g id="edit-icon">
		<polygon class="cls-1" points="30.32 91.7 35.99 97.91 64.58 89.12 44.49 65.5 30.32 91.7"/>
		<path class="cls-1" d="M65.5,0A65.5,65.5,0,1,0,131,65.5,65.49,65.49,0,0,0,65.5,0ZM104,57.72,66,90.83Q62.8,91.91,59.59,93q-15,4.95-29.59,9a3.85,3.85,0,0,1-4.9-5.92q7.2-12.81,14.13-26.52,1.53-3,3-6L80.3,30.43a8.77,8.77,0,0,1,12.38.87l12.22,14A8.77,8.77,0,0,1,104,57.72Z"/>
	<g>

    <!-- etc -->

  </defs>
</svg>
